<svg width="20" height="21" viewBox="0 0 20 21" fill="none" xmlns="http://www.w3.org/2000/svg">
<path d="M1.03418 4.46631V4.78489V13.5036H2.39227V15.0305H3.75392V16.5562H18.6443V7.51897H17.2827V5.99326H15.9246V4.46631H1.03418ZM1.64094 5.10347H15.3178V12.8664H1.64094V5.10347ZM3.78473 5.99326L3.73733 6.25211C3.6215 6.88711 3.18072 7.36923 2.63166 7.49284L2.39227 7.54759V10.4235L2.63166 10.4783C3.17868 10.6025 3.61604 11.0828 3.73259 11.7153L3.78117 11.9741H4.03122C5.23937 11.9741 7.02354 11.9751 8.45628 11.9741C8.45994 11.9742 8.46329 11.9754 8.46695 11.9754C8.4706 11.9754 8.47396 11.9742 8.47761 11.9741C9.9197 11.9732 11.0122 11.9703 12.9264 11.9741H13.1776L13.225 11.7153C13.3415 11.0828 13.7791 10.6027 14.3259 10.4783L14.5653 10.4235V7.54759L14.3259 7.49284C13.7767 7.36942 13.3362 6.88717 13.2203 6.25211L13.174 5.99326H12.9228H12.0447C9.08202 5.99339 6.99733 5.99339 4.03478 5.99326H3.78473ZM4.2078 6.63043C5.16303 6.63047 5.98336 6.63041 6.82325 6.63043C6.18694 7.18024 5.77209 8.03009 5.77209 8.98495C5.77209 9.9397 6.18705 10.7875 6.82325 11.337C6.03865 11.3377 4.92139 11.3369 4.20425 11.337C4.00452 10.7045 3.5756 10.2265 2.99903 9.99918V7.9732C3.57791 7.74624 4.00808 7.26542 4.2078 6.63043ZM8.46695 6.63043C9.61359 6.63043 10.5562 7.67073 10.5562 8.98495C10.5562 10.295 9.61931 11.3304 8.47761 11.337C8.47067 11.337 8.46321 11.337 8.45628 11.337C7.31459 11.3304 6.37885 10.295 6.37885 8.98495C6.37885 7.67073 7.3203 6.63043 8.46695 6.63043ZM10.1106 6.63043C10.75 6.63041 11.3293 6.63046 12.0447 6.63043H12.7498C12.9494 7.26523 13.3797 7.74611 13.9586 7.9732V9.99918C13.3822 10.2266 12.953 10.7045 12.7533 11.337C11.6297 11.3348 11.0559 11.3371 10.1106 11.337C10.7473 10.7875 11.163 9.93982 11.163 8.98495C11.163 8.02997 10.7474 7.18023 10.1106 6.63043ZM15.9246 6.63043H16.6759V14.3934H2.99903V13.5036H15.9246V6.63043ZM8.33422 7.13941V7.46546C8.2159 7.48069 8.10877 7.5111 8.01306 7.55506C7.91736 7.59941 7.83562 7.65616 7.76775 7.72555C7.70163 7.79487 7.65024 7.87641 7.6137 7.97071C7.57889 8.06507 7.56155 8.16934 7.56155 8.28307C7.56155 8.40655 7.58197 8.51475 7.62199 8.60912C7.66375 8.70342 7.72319 8.78713 7.79975 8.85925C7.87805 8.93138 7.97218 8.99425 8.0818 9.04841C8.19316 9.10117 8.31826 9.14765 8.45747 9.18779C8.56187 9.22386 8.64984 9.26093 8.72292 9.29979C8.79774 9.33866 8.85781 9.38085 8.90305 9.42673C8.95003 9.47254 8.98408 9.52193 9.00497 9.57482C9.02585 9.62751 9.03697 9.68536 9.03697 9.7478C9.03697 9.82267 9.02395 9.89072 8.99786 9.95189C8.97176 10.0116 8.93336 10.0616 8.88291 10.105C8.83419 10.1467 8.7723 10.1797 8.69922 10.2033C8.62788 10.2256 8.54613 10.2369 8.45391 10.2369C8.38779 10.2369 8.32212 10.2273 8.256 10.2095C8.18988 10.1915 8.12981 10.1595 8.07587 10.1137C8.02193 10.0679 7.97857 10.0059 7.94551 9.92825C7.91246 9.85051 7.89574 9.75374 7.89574 9.6358H7.43712C7.43712 9.79254 7.46006 9.92661 7.50704 10.039C7.55402 10.15 7.61716 10.2418 7.69546 10.3153C7.77551 10.3889 7.86655 10.4457 7.96922 10.4845C8.07188 10.5233 8.17719 10.5489 8.28682 10.5617V10.8292H8.65063V10.5617C8.78113 10.5479 8.8982 10.5197 9.0026 10.4783C9.107 10.4367 9.19616 10.3809 9.26924 10.3115C9.34232 10.2422 9.39868 10.1607 9.4387 10.0664C9.47873 9.97068 9.49796 9.86334 9.49796 9.74407C9.49796 9.62205 9.47935 9.51471 9.44107 9.42175C9.40279 9.32879 9.34643 9.24607 9.27161 9.17535C9.19679 9.10469 9.10392 9.04405 8.9943 8.99117C8.88468 8.93707 8.75895 8.88765 8.61627 8.84432C8.5049 8.80692 8.41078 8.7687 8.33422 8.72983C8.2594 8.68969 8.1987 8.6481 8.15172 8.60414C8.10473 8.55973 8.07069 8.51142 8.0498 8.45854C8.03066 8.40444 8.02136 8.34343 8.02136 8.27685C8.02136 8.20466 8.03066 8.13887 8.0498 8.07898C8.07068 8.01934 8.10103 7.96921 8.14105 7.92715C8.18281 7.88402 8.23421 7.85117 8.29511 7.8276C8.35601 7.80402 8.42846 7.79151 8.51198 7.79151C8.59202 7.79151 8.66384 7.80818 8.72648 7.84004C8.78912 7.8719 8.84115 7.91649 8.88291 7.9732C8.92466 8.0301 8.95564 8.09713 8.97653 8.1748C8.99915 8.25254 9.01089 8.33695 9.01089 8.42992H9.46715C9.46715 8.14835 9.39967 7.92642 9.26569 7.76413C9.13344 7.60063 8.94638 7.50175 8.70278 7.4667V7.13941H8.33422ZM17.2827 8.15614H18.0376V15.9191H4.36067V15.0305H17.2827V8.15614Z" fill="white"/>
</svg>
