<svg width="16" height="16" viewBox="0 0 16 16" fill="none" xmlns="http://www.w3.org/2000/svg">
<path d="M8.00065 7.54158C10.0257 7.54158 11.6673 5.89996 11.6673 3.87492C11.6673 1.84987 10.0257 0.208252 8.00065 0.208252C5.97561 0.208252 4.33398 1.84987 4.33398 3.87492C4.33398 5.89996 5.97561 7.54158 8.00065 7.54158Z" fill="#2443BE"/>
<path d="M15.3337 15.7916V12.1249C15.3337 11.5749 15.0587 11.0249 14.6003 10.6583C13.592 9.83325 12.3087 9.28325 11.0253 8.91659C10.1087 8.64159 9.10032 8.45825 8.00032 8.45825C6.99199 8.45825 5.98366 8.64159 4.97532 8.91659C3.69199 9.28325 2.40866 9.92492 1.40033 10.6583C0.941992 11.0249 0.666992 11.5749 0.666992 12.1249V15.7916H15.3337Z" fill="#2443BE"/>
</svg>
