<svg width="16" height="16" viewBox="0 0 16 16" fill="none" xmlns="http://www.w3.org/2000/svg">
<path d="M5 8H3V6H5V8ZM9 6H7V8H9V6ZM13 6H11V8H13V6ZM5 9H3V11H5V9ZM9 9H7V11H9V9ZM13 9H11V11H13V9ZM5 12H3V14H5V12ZM9 12H7V14H9V12ZM4 3C4.55225 3 5 2.55272 5 2V1C5 0.44725 4.55225 0 4 0C3.44775 0 3 0.447281 3 1V2C3 2.55275 3.44775 3 4 3ZM16 2V16H0V2H2.5C2.5 2.82716 3.17284 3.5 4 3.5C4.82716 3.5 5.5 2.82716 5.5 2H10.5C10.5 2.82716 11.1728 3.5 12 3.5C12.8272 3.5 13.5 2.82716 13.5 2H16ZM15 5H1V15H15V5ZM12 3C12.5527 3 13 2.55272 13 2V1C13 0.44725 12.5527 0 12 0C11.4473 0 11 0.447281 11 1V2C11 2.55275 11.4473 3 12 3Z" fill="#fff"/>
</svg>
