<svg width="9" height="17" viewBox="0 0 9 17" fill="none" xmlns="http://www.w3.org/2000/svg">
<path d="M2.16614 3.44794C2.16614 3.89194 2.16614 5.87194 2.16614 5.87194H0.390137V8.83594H2.16614V16.9599H5.81414V8.82994H8.26214C8.26214 8.82994 8.49014 7.40794 8.60414 5.85394C8.28614 5.85394 5.83214 5.85394 5.83214 5.85394C5.83214 5.85394 5.83214 4.13194 5.83214 3.82594C5.83214 3.52594 6.22814 3.11794 6.62414 3.11794C7.01414 3.11794 7.84214 3.11794 8.61014 3.11794C8.61014 2.71594 8.61014 1.31794 8.61014 0.0339355C7.58414 0.0339355 6.42014 0.0339355 5.91014 0.0339355C2.07614 0.0399355 2.16614 3.00394 2.16614 3.44794Z" fill="white"/>
</svg>
