<svg width="17" height="18" viewBox="0 0 17 18" fill="none" xmlns="http://www.w3.org/2000/svg">
<path d="M16.8209 9.13281C16.8209 10.3414 16.8209 11.5566 16.8209 12.7652C16.8209 14.8172 15.8541 16.2383 14.1203 17.1613C13.4113 17.5398 12.6443 17.7059 11.8451 17.7059C9.58278 17.7059 7.31403 17.7457 5.05173 17.6926C3.23415 17.6527 1.77106 16.8293 0.791373 15.2156C0.385319 14.5383 0.185514 13.7945 0.179069 13.0043C0.179069 10.4476 0.166178 7.88437 0.179069 5.32773C0.19196 3.5746 1.0234 2.27968 2.43493 1.36328C3.27282 0.825385 4.20094 0.579682 5.18708 0.573041C7.39138 0.573041 9.58923 0.55976 11.8 0.573041C13.5015 0.586323 14.9131 1.27031 15.9572 2.67812C16.5308 3.45507 16.8144 4.3582 16.8144 5.34101C16.8209 6.59609 16.8209 7.86445 16.8209 9.13281ZM15.5834 9.14609C15.5834 7.87773 15.5834 6.59609 15.5834 5.32773C15.5834 4.6371 15.3836 4.00624 14.9904 3.46171C14.2234 2.39257 13.1599 1.86796 11.8902 1.85468C9.65368 1.82812 7.41716 1.84804 5.18063 1.84804C4.48454 1.84804 3.82712 2.01406 3.2277 2.37265C2.06755 3.06328 1.42301 4.07265 1.42946 5.48046C1.43591 7.95742 1.42946 10.4477 1.42946 12.9312C1.42946 13.6285 1.62926 14.266 2.02887 14.8172C2.79587 15.8863 3.85934 16.4043 5.12907 16.4176C7.37848 16.4441 9.6279 16.4242 11.8709 16.4242C12.38 16.4242 12.8763 16.3113 13.3533 16.1121C14.6166 15.5875 15.6285 14.3723 15.5898 12.7519C15.5576 11.55 15.5834 10.348 15.5834 9.14609Z" fill="white"/>
<path d="M8.50002 12.7919C6.32795 12.7852 4.59416 10.9989 4.6006 8.77429C4.60705 6.6028 6.37306 4.8364 8.5258 4.84304C10.6785 4.84968 12.4252 6.64265 12.4188 8.8407C12.4188 11.0255 10.6656 12.7985 8.50002 12.7919ZM8.53225 6.11804C7.05627 6.11804 5.86389 7.31999 5.85099 8.80749C5.85099 10.2884 7.04338 11.5036 8.50002 11.5102C9.976 11.5102 11.1813 10.3083 11.1877 8.82741C11.1877 7.33991 9.99533 6.11804 8.53225 6.11804Z" fill="white"/>
<path d="M13.7013 4.51772C13.7013 5.00249 13.3274 5.40093 12.8698 5.39429C12.4186 5.39429 12.0513 4.98921 12.0577 4.50444C12.0577 4.02632 12.4315 3.63452 12.8827 3.63452C13.3339 3.63452 13.7013 4.03296 13.7013 4.51772Z" fill="white"/>
</svg>
