<svg width="101" height="20" viewBox="0 0 101 20" fill="none" xmlns="http://www.w3.org/2000/svg">
<path d="M87.7778 14.5679C88.0247 15.3086 88.5185 15.9259 89.0123 16.4198C89.5062 16.9136 90.1235 17.4074 90.8642 17.6543C91.6049 18.0247 92.3457 18.1481 93.0864 18.1481C93.8272 18.1481 94.6914 18.0247 95.3086 17.6543C95.9259 17.4074 96.5432 16.9136 97.1605 16.4198C97.6543 15.9259 98.1482 15.3086 98.3951 14.5679C98.642 13.8272 98.8889 13.0864 98.8889 12.3457C98.8889 10.8642 98.2716 9.38272 97.1605 8.2716C96.6667 7.77778 96.0494 7.28395 95.3086 7.03704C94.5679 6.79012 93.8272 6.54321 93.0864 6.54321C92.3457 6.54321 91.6049 6.66667 90.8642 7.03704C90.1235 7.28395 89.5062 7.77778 89.0123 8.2716C88.5185 8.76543 88.0247 9.38272 87.7778 10.1235C87.5309 10.8642 87.284 11.6049 87.284 12.3457C87.284 13.2099 87.5309 13.9506 87.7778 14.5679ZM100.247 18.7654C100.247 19.0123 100.123 19.1358 100 19.2593C99.8765 19.3827 99.6296 19.5062 99.5062 19.5062C99.1358 19.5062 98.7654 19.1358 98.7654 18.7654V16.7901C98.1481 17.6543 97.284 18.3951 96.2963 18.8889C94.4444 19.8765 92.2222 19.8765 90.2469 19.1358C89.3827 18.7654 88.642 18.2716 87.9012 17.5309C87.284 16.9136 86.6667 16.0494 86.2963 15.1852C85.9259 14.321 85.679 13.3333 85.679 12.3457C85.679 11.358 85.8025 10.3704 86.2963 9.50617C86.6667 8.64198 87.1605 7.90123 87.9012 7.16049C88.5185 6.54321 89.3827 5.92593 90.2469 5.67901C91.1111 5.30864 92.0988 5.06173 93.0864 5.06173C94.1975 5.06173 95.3086 5.30864 96.4197 5.80247C97.4074 6.2963 98.2716 7.03704 98.8889 7.90123V0.740741C98.8889 0.37037 99.1358 0 99.6296 0C99.8765 0 100 0.123457 100.123 0.246914C100.247 0.37037 100.37 0.617284 100.37 0.740741V18.7654H100.247ZM72.0988 14.6914C72.3457 15.4321 72.8395 16.0494 73.3333 16.5432C73.8272 17.037 74.4444 17.5309 75.1852 17.7778C75.9259 18.1481 76.6667 18.2716 77.4074 18.2716C78.1481 18.2716 79.0123 18.1481 79.6296 17.7778C80.3704 17.5309 80.9877 17.037 81.4815 16.5432C81.9753 16.0494 82.4691 15.4321 82.716 14.6914C82.963 13.9506 83.2099 13.2099 83.2099 12.4691C83.2099 11.7284 83.0864 10.8642 82.716 10.2469C82.4691 9.50617 81.9753 8.88889 81.4815 8.39506C80.9877 7.90123 80.3704 7.40741 79.6296 7.16049C78.8889 6.91358 78.1481 6.66667 77.4074 6.66667C76.6667 6.66667 75.9259 6.79012 75.1852 7.16049C74.4444 7.40741 73.8272 7.90123 73.3333 8.39506C72.8395 8.88889 72.3457 9.50617 72.0988 10.2469C71.8519 10.9877 71.6049 11.7284 71.6049 12.4691C71.6049 13.2099 71.7284 13.9506 72.0988 14.6914ZM70.7407 9.62963C71.4815 7.90123 72.8395 6.54321 74.5679 5.80247C75.4321 5.4321 76.4198 5.18518 77.4074 5.18518C78.3951 5.18518 79.3827 5.30864 80.2469 5.80247C81.1111 6.17284 81.8519 6.66667 82.4691 7.40741C83.0864 8.02469 83.7037 8.88889 84.0741 9.75309C84.8148 11.6049 84.8148 13.5802 84.0741 15.4321C83.7037 16.2963 83.2099 17.037 82.4691 17.7778C81.8519 18.3951 80.9877 19.0123 80.2469 19.3827C79.3827 19.7531 78.3951 20 77.4074 20C76.4198 20 75.4321 19.7531 74.5679 19.3827C73.7037 19.0123 72.963 18.5185 72.2222 17.7778C70.8642 16.4198 70.1235 14.5679 70.1235 12.716C70.1235 11.4815 70.3704 10.4938 70.7407 9.62963ZM64.0741 10.8642L69.0123 18.3951C69.1358 18.5185 69.1358 18.7654 69.1358 18.8889C69.1358 19.1358 69.0123 19.2593 68.7654 19.3827C68.642 19.5062 68.3951 19.5062 68.2716 19.5062C68.0247 19.5062 67.9012 19.3827 67.7778 19.1358L62.963 11.8519L60.3704 14.321V18.642C60.3704 18.8889 60.2469 19.0123 60.1235 19.1358C60 19.2593 59.7531 19.3827 59.6296 19.3827C59.3827 19.3827 59.2593 19.2593 59.1358 19.1358C59.0123 19.0123 58.8889 18.7654 58.8889 18.642V0.740741C58.8889 0.493827 59.0123 0.37037 59.1358 0.246914C59.2593 0.123457 59.5062 0 59.6296 0C59.8765 0 60 0.123457 60.1235 0.246914C60.2469 0.37037 60.3704 0.617284 60.3704 0.740741V12.4691L67.7778 5.4321C67.9012 5.30864 68.1481 5.18518 68.2716 5.18518C68.3951 5.18518 68.642 5.30864 68.7654 5.4321C68.7654 5.4321 68.7654 5.4321 68.7654 5.55556C68.8889 5.67901 68.8889 5.80247 68.8889 6.04938C68.8889 6.2963 68.7654 6.41975 68.642 6.54321L64.0741 10.8642ZM35.4321 8.2716C35.8025 7.77778 36.1728 7.40741 36.5432 7.03704C36.9136 6.66667 37.4074 6.2963 37.9012 6.04938C38.3951 5.80247 39.0123 5.55556 39.5062 5.4321C40.1235 5.30864 40.7407 5.18518 41.2346 5.18518H41.358C41.6049 5.18518 41.7284 5.18519 41.9753 5.4321C42.0988 5.55556 42.2222 5.80247 42.2222 5.92593C42.2222 6.17284 42.0988 6.2963 41.9753 6.41975C41.8519 6.54321 41.6049 6.66667 41.4815 6.66667H41.358C40.6173 6.66667 39.7531 6.79012 39.0123 7.16049C38.2716 7.53086 37.6543 7.90123 37.1605 8.51852C36.6667 9.1358 36.1728 9.75309 35.8025 10.4938C35.4321 11.2346 35.3086 12.0988 35.3086 12.8395V18.8889C35.3086 19.1358 35.1852 19.2593 35.0617 19.3827C34.9383 19.5062 34.6914 19.6296 34.5679 19.6296C34.321 19.6296 34.1975 19.5062 34.0741 19.3827C33.9506 19.2593 33.8272 19.0123 33.8272 18.8889V5.92593C33.8272 5.67901 33.9506 5.55556 34.0741 5.4321C34.4444 5.06173 34.8148 5.06173 35.1852 5.30864C35.3086 5.4321 35.4321 5.67901 35.4321 5.80247V8.2716ZM30.3704 11.8519C30.3704 11.1111 30.1235 10.3704 29.8765 9.75309C29.6296 9.1358 29.1358 8.51852 28.642 8.02469C28.1481 7.53086 27.5309 7.16049 26.9136 6.91358C25.5556 6.41975 23.9506 6.41975 22.5926 6.91358C21.9753 7.16049 21.358 7.53086 20.8642 8.02469C20.3704 8.51852 20 9.1358 19.6296 9.75309C19.2593 10.3704 19.1358 11.1111 19.1358 11.8519H30.3704ZM18.8889 13.0864C18.8889 13.8272 19.1358 14.4444 19.5062 15.0617C20.1235 16.2963 21.2346 17.284 22.4691 17.7778C23.0864 18.0247 23.8272 18.1481 24.5679 18.1481C25.4321 18.1481 26.2963 18.0247 27.037 17.6543C27.7778 17.284 28.3951 16.7901 28.8889 16.1728C29.1358 15.9259 29.3827 15.9259 29.6296 16.0494C29.7531 16.0494 29.8765 16.1728 30 16.2963C30.1235 16.4198 30.1235 16.5432 30.1235 16.7901C30.1235 17.037 30 17.1605 29.8765 17.284C29.2593 18.0247 28.5185 18.5185 27.6543 18.8889C25.8025 19.8765 23.5802 19.8765 21.7284 19.1358C20.8642 18.7654 20.1235 18.2716 19.3827 17.5309C18.0247 16.1728 17.284 14.321 17.284 12.3457C17.284 11.358 17.4074 10.3704 17.9012 9.50617C18.2716 8.64198 18.7654 7.90123 19.5062 7.16049C20.1235 6.54321 20.9877 5.92593 21.8519 5.55556C22.716 5.18518 23.7037 4.93827 24.6914 4.93827C25.679 4.93827 26.6667 5.18518 27.5309 5.55556C29.2593 6.2963 30.6173 7.65432 31.358 9.38272C31.7284 10.2469 31.9753 11.2346 31.9753 12.2222C31.9753 12.4691 31.8519 12.5926 31.7284 12.716C31.6049 12.8395 31.358 12.963 31.2346 12.963L18.8889 13.0864ZM4.32099 11.6049H12.2222L8.39506 2.34568L4.32099 11.6049ZM12.963 13.0864H3.7037L1.23457 19.0123C1.11111 19.3827 0.740741 19.5062 0.37037 19.3827C0.246914 19.2593 0 19.1358 0 19.0123C0 18.7654 0 18.642 0 18.3951L7.65432 0.493827C7.77778 0.246914 8.02469 0 8.27161 0C8.51852 0 8.88889 0.123457 8.88889 0.493827L16.5432 18.5185C16.6667 18.642 16.6667 18.8889 16.5432 19.0123C16.5432 19.1358 16.2963 19.3827 16.1728 19.3827C16.0494 19.5062 15.8025 19.5062 15.5556 19.3827C15.4321 19.2593 15.1852 19.1358 15.1852 19.0123L12.963 13.0864ZM49.0123 13.0864C48.7654 12.8395 48.2716 12.716 47.9012 13.0864L42.8395 18.1481C42.4691 18.3951 42.4691 18.8889 42.8395 19.2593C43.2099 19.5062 43.7037 19.5062 43.9506 19.2593L49.0123 14.1975C49.2593 13.9506 49.2593 13.4568 49.0123 13.0864ZM56.0494 11.6049C55.5556 11.6049 55.3086 11.9753 55.3086 12.3457C55.3086 15.4321 52.716 18.0247 49.6296 18.0247C49.3827 18.0247 49.1358 18.0247 48.8889 17.9012L50.8642 15.9259C51.2346 15.679 51.2346 15.1852 50.8642 14.8148C50.6173 14.4444 50 14.4444 49.7531 14.8148L46.9136 17.7778C46.5432 18.0247 46.5432 18.5185 46.9136 18.8889L47.037 19.0123C47.1605 19.1358 47.1605 19.1358 47.284 19.1358C48.0247 19.3827 48.7654 19.5062 49.6296 19.5062C53.7037 19.5062 56.9136 16.2963 56.9136 12.2222C56.9136 11.9753 56.5432 11.6049 56.0494 11.6049ZM42.963 15.1852L43.0864 15.3086C43.2099 15.4321 43.4568 15.5556 43.7037 15.5556C43.9506 15.5556 44.0741 15.4321 44.1975 15.3086L47.284 12.3457C47.6543 12.0988 47.6543 11.4815 47.284 11.2346C47.037 10.9877 46.5432 10.8642 46.1728 11.2346L44.0741 13.2099C44.0741 12.963 43.9506 12.5926 43.9506 12.3457C43.9506 9.25926 46.5432 6.66667 49.6296 6.66667C50.1235 6.66667 50.3704 6.2963 50.3704 5.80247C50.3704 5.4321 50 5.06173 49.6296 5.06173C45.5556 5.06173 42.3457 8.2716 42.3457 12.3457C42.3457 13.2099 42.4691 13.9506 42.7161 14.8148C42.8395 15.0617 42.8395 15.0617 42.963 15.1852Z" fill="white"/>
<path d="M53.4571 9.89952C52.7164 9.89952 52.0991 9.28224 52.0991 8.5415C52.0991 7.80076 52.7164 7.18347 53.4571 7.18347C54.1978 7.18347 54.8151 7.80076 54.8151 8.5415C54.8151 9.28224 54.1978 9.89952 53.4571 9.89952ZM55.309 5.45508C53.5806 5.45508 52.0991 6.31928 50.741 7.43039C50.3707 7.6773 50.1238 8.04767 49.7534 8.04767C48.3954 8.04767 47.6546 8.78841 46.9139 9.77607C46.667 9.89952 46.7904 10.023 47.0373 10.1464C47.7781 10.3933 48.3954 10.6403 49.0127 11.0106C48.8892 11.2575 49.0127 11.5045 49.1361 11.6279L50.2472 12.739C50.3707 12.8625 50.6176 12.9859 50.8645 12.8625C51.2349 13.4798 51.4818 14.0971 51.7287 14.8378C51.8522 15.2082 51.9756 15.3316 52.346 15.0847C53.0867 14.4674 53.9509 13.7267 54.0744 12.6156C54.0744 11.9983 54.4448 11.6279 54.6917 11.1341C55.6793 9.89952 56.5435 8.41804 56.667 6.68965C56.667 5.45508 56.4201 5.45508 55.309 5.45508Z" fill="#E96EB4"/>
</svg>
