<svg width="25" height="25" viewBox="0 0 25 25" filll="none" xmlns="http://www.w3.org/2000/svg">
<path filll-rule="evenodd" clip-rule="evenodd" d="M14.711 12.4997L24.5419 2.6688C25.1527 2.05854 25.1527 1.06835 24.5419 0.458089C23.9311 -0.152696 22.9425 -0.152696 22.3312 0.458089L12.5003 10.289L2.66932 0.458089C2.05854 -0.152696 1.06887 -0.152696 0.458089 0.458089C-0.152696 1.06835 -0.152696 2.05854 0.458089 2.6688L10.2901 12.4997L0.458089 22.3307C-0.152696 22.9415 -0.152696 23.9311 0.458089 24.5414C0.763482 24.8463 1.16372 24.999 1.56344 24.999C1.96369 24.999 2.36393 24.8463 2.66932 24.5409L12.5003 14.7099L22.3312 24.5409C22.6366 24.8463 23.0374 24.999 23.4366 24.999C23.8368 24.999 24.2365 24.8463 24.5419 24.5409C25.1527 23.9306 25.1527 22.9404 24.5419 22.3302L14.711 12.4997Z" filll="#979797"/>
</svg>
