<svg width="45" height="15" viewBox="0 0 45 15" fill="none" xmlns="http://www.w3.org/2000/svg">
<path d="M43.5938 6.15625H42.1875C42.1875 3.18791 39.6689 0.78125 36.5625 0.78125H30.9375C28.8816 0.78125 27.1034 1.8455 26.1214 3.41903C25.1409 2.62353 23.8869 2.125 22.5 2.125C21.1131 2.125 19.8591 2.62353 18.8786 3.41903C17.8966 1.8455 16.1184 0.78125 14.0625 0.78125H8.4375C5.33109 0.78125 2.8125 3.18791 2.8125 6.15625H1.40625C0.628945 6.15625 0 6.75724 0 7.5C0 8.24276 0.628945 8.84375 1.40625 8.84375H2.8125C2.8125 11.8121 5.33109 14.2188 8.4375 14.2188H14.0625C17.1689 14.2188 19.6875 11.8121 19.6875 8.84375V7.5C19.6875 6.01852 20.9496 4.8125 22.5 4.8125C24.0504 4.8125 25.3125 6.01852 25.3125 7.5V8.84375C25.3125 11.8121 27.8311 14.2188 30.9375 14.2188H36.5625C39.6689 14.2188 42.1875 11.8121 42.1875 8.84375H43.5938C44.3711 8.84375 45 8.24276 45 7.5C45 6.75724 44.3711 6.15625 43.5938 6.15625ZM16.875 8.84375C16.875 10.3252 15.6129 11.5312 14.0625 11.5312H8.4375C6.88711 11.5312 5.625 10.3252 5.625 8.84375V6.15625C5.625 4.67477 6.88711 3.46875 8.4375 3.46875H14.0625C15.6129 3.46875 16.875 4.67477 16.875 6.15625V8.84375ZM39.375 8.84375C39.375 10.3252 38.1129 11.5312 36.5625 11.5312H30.9375C29.3871 11.5312 28.125 10.3252 28.125 8.84375V6.15625C28.125 4.67477 29.3871 3.46875 30.9375 3.46875H36.5625C38.1129 3.46875 39.375 4.67477 39.375 6.15625V8.84375Z" fill="white"/>
</svg>
