<svg width="27" height="27" viewBox="0 0 27 27" fill="none" xmlns="http://www.w3.org/2000/svg">
<path d="M21.0806 18.4521C21.2735 18.7786 21.3706 19.1593 21.3706 19.5956C21.3706 20.2651 21.1712 20.8219 20.7726 21.2686C20.3734 21.7153 19.7986 21.9789 19.0453 22.0578V23.2031H18.0862V22.0628C16.8323 21.934 16.0561 21.204 15.7561 19.8758L17.239 19.4888C17.3759 20.3244 17.8309 20.7427 18.6035 20.7427C18.9645 20.7427 19.2314 20.6539 19.4013 20.4739C19.5712 20.2947 19.6569 20.0802 19.6569 19.8264C19.6569 19.5641 19.5712 19.365 19.4013 19.2315C19.2314 19.0964 18.8526 18.9253 18.2659 18.7176C17.7386 18.5347 17.3265 18.3547 17.0297 18.1738C16.7333 17.9956 16.4926 17.7468 16.3082 17.4253C16.1217 17.1025 16.0295 16.7267 16.0295 16.2997C16.0295 15.7393 16.196 15.2336 16.5256 14.7851C16.8569 14.3371 17.3758 14.0636 18.0861 13.9632V13.0783H19.0452V13.9632C20.1165 14.0918 20.812 14.6982 21.1285 15.7824L19.8048 16.3244C19.548 15.5813 19.1506 15.2089 18.6102 15.2089C18.3398 15.2089 18.1224 15.2912 17.9591 15.4578C17.7944 15.6242 17.7121 15.8253 17.7121 16.0626C17.7121 16.3033 17.7911 16.4877 17.9493 16.6179C18.1077 16.7464 18.4453 16.9064 18.9645 17.0957C19.5332 17.3034 19.9814 17.5011 20.3042 17.6858C20.6289 17.8706 20.886 18.1275 21.0806 18.4521ZM27 18.1405C27 22.8011 23.2231 26.5782 18.5627 26.5782C13.9021 26.5782 10.125 22.8011 10.125 18.1405C10.125 13.4802 13.9021 9.70305 18.5627 9.70305C23.2231 9.70305 27 13.4802 27 18.1405ZM25.3127 18.1405C25.3127 14.4179 22.2853 11.3906 18.5627 11.3906C14.8401 11.3906 11.8126 14.4179 11.8126 18.1405C11.8126 21.8633 14.8401 24.8907 18.5627 24.8907C22.2853 24.8907 25.3127 21.8633 25.3127 18.1405ZM13.5 2.9531H23.6251C24.0915 2.9531 24.4686 2.66952 24.4686 2.32018V1.05451C24.4686 0.705224 24.0915 0.421875 23.6251 0.421875H13.5C13.0336 0.421875 12.6562 0.705224 12.6562 1.05451V2.32018C12.6563 2.66952 13.0336 2.9531 13.5 2.9531ZM13.5 6.32808H23.6251C24.0915 6.32808 24.4686 6.04462 24.4686 5.69527V4.42966C24.4686 4.08026 24.0915 3.79674 23.6251 3.79674H13.5C13.0336 3.79674 12.6562 4.0802 12.6562 4.42966V5.69533C12.6563 6.04461 13.0336 6.32808 13.5 6.32808ZM0.843647 23.2031H10.794C10.2898 22.4318 9.89924 21.5797 9.64054 20.6718H0.843647C0.377335 20.6718 0 20.9551 0 21.3049V22.5702C0 22.9195 0.377335 23.2031 0.843647 23.2031ZM10.9687 24.0469H0.843647C0.377335 24.0469 0 24.3302 0 24.6795V25.9453C0 26.2946 0.377335 26.5782 0.843647 26.5782H10.9687C11.4351 26.5782 11.8126 26.2946 11.8126 25.9453V24.6795C11.8126 24.3302 11.4352 24.0469 10.9687 24.0469ZM0.843647 19.8283H9.44283C9.34066 19.2795 9.28146 18.7175 9.28146 18.1405C9.28146 17.8556 9.29782 17.5753 9.32419 17.2969H0.843647C0.377335 17.2969 0 17.5803 0 17.9299V19.1951C0 19.5449 0.377335 19.8283 0.843647 19.8283ZM13.5 9.70305H14.7193C15.8911 9.16585 17.1896 8.8593 18.5626 8.8593C19.9334 8.8593 21.234 9.16585 22.4055 9.70305H23.6251C24.0915 9.70305 24.4686 9.41959 24.4686 9.0703V7.80464C24.4686 7.45535 24.0915 7.17172 23.6251 7.17172H13.5C13.0336 7.17172 12.6562 7.45535 12.6562 7.80464V9.0703C12.6563 9.41959 13.0336 9.70305 13.5 9.70305ZM0.843647 9.70305H10.9687C11.4351 9.70305 11.8126 9.41959 11.8126 9.0703V7.80464C11.8126 7.45535 11.4351 7.17172 10.9687 7.17172H0.843647C0.377335 7.17172 0 7.45535 0 7.80464V9.0703C0 9.41959 0.377335 9.70305 0.843647 9.70305ZM0.843647 16.4532H9.44283C9.6076 15.5567 9.90263 14.708 10.3065 13.9218H0.843647C0.377335 13.9218 0 14.2051 0 14.5545V15.8205C0 16.1698 0.377335 16.4532 0.843647 16.4532ZM0.843647 13.0781H10.794C11.094 12.6168 11.4368 12.1883 11.8126 11.7894V11.1796C11.8126 10.8303 11.4353 10.547 10.969 10.547H0.843647C0.377335 10.547 0 10.8303 0 11.1796V12.4453C0 12.7946 0.377335 13.0781 0.843647 13.0781Z" fill="#CCFE4F"/>
</svg>
