<svg width="19" height="19" viewBox="0 0 19 19" fill="none" xmlns="http://www.w3.org/2000/svg">
<g clip-path="url(#clip0)">
<path d="M7.38653 0C3.30852 0 0.00195312 3.30656 0.00195312 7.3846C0.00195312 11.4626 3.30852 14.7692 7.38656 14.7692C8.95472 14.7692 10.409 14.2801 11.6045 13.4469L11.6053 13.4461L17.0821 18.9228C17.1837 19.0245 17.3453 19.0271 17.4496 18.9228L18.9257 17.4468C19.0273 17.3451 19.0221 17.1766 18.9248 17.0793L13.4488 11.6034C14.282 10.4071 14.7711 8.95273 14.7711 7.3846C14.7711 3.30656 11.4646 0 7.38653 0ZM7.38653 13.0316C4.26761 13.0316 1.73948 10.5035 1.73948 7.3846C1.73948 4.26569 4.26764 1.73756 7.38653 1.73756C10.5054 1.73756 13.0336 4.26569 13.0336 7.3846C13.0336 10.5035 10.5054 13.0316 7.38653 13.0316Z" fill="white"/>
</g>
<defs>
<clipPath id="clip0">
<rect width="19" height="19" fill="white"/>
</clipPath>
</defs>
</svg>
