<svg xmlns="http://www.w3.org/2000/svg" style="border: 0 !important; clip: rect(0 0 0 0) !important; height: 1px !important; margin: -1px !important; overflow: hidden !important; padding: 0 !important; position: absolute !important; width: 1px !important;" class="root-svg-symbols-element">
  <defs>
      <clipPath id="clip0"><path fill="#fff" d="M0 0H19V19H0z"/></clipPath>
<clipPath id="clip0"><path d="M0 0H17V17H0z"/></clipPath>
<linearGradient id="&#x411;&#x435;&#x437;&#x44B;&#x43C;&#x44F;&#x43D;&#x43D;&#x44B;&#x439;_&#x433;&#x440;&#x430;&#x434;&#x438;&#x435;&#x43D;&#x442;" x1="1164.37" y1="259.62" x2="389.37" y2="155.62" gradientTransform="matrix(1 0 0 -1 0 382)" gradientUnits="userSpaceOnUse"><stop offset="0" stop-color="#6039cf"/><stop offset="1" stop-color="#bb09d8"/></linearGradient>
<clipPath id="clip0"><path fill="#fff" d="M0 0H17V17H0z"/></clipPath>
  </defs>
    <symbol id="aero" viewBox="0 0 101 20">
      <path d="M87.7778 14.5679C88.0247 15.3086 88.5185 15.9259 89.0123 16.4198C89.5062 16.9136 90.1235 17.4074 90.8642 17.6543C91.6049 18.0247 92.3457 18.1481 93.0864 18.1481C93.8272 18.1481 94.6914 18.0247 95.3086 17.6543C95.9259 17.4074 96.5432 16.9136 97.1605 16.4198C97.6543 15.9259 98.1482 15.3086 98.3951 14.5679C98.642 13.8272 98.8889 13.0864 98.8889 12.3457C98.8889 10.8642 98.2716 9.38272 97.1605 8.2716C96.6667 7.77778 96.0494 7.28395 95.3086 7.03704C94.5679 6.79012 93.8272 6.54321 93.0864 6.54321C92.3457 6.54321 91.6049 6.66667 90.8642 7.03704C90.1235 7.28395 89.5062 7.77778 89.0123 8.2716C88.5185 8.76543 88.0247 9.38272 87.7778 10.1235C87.5309 10.8642 87.284 11.6049 87.284 12.3457C87.284 13.2099 87.5309 13.9506 87.7778 14.5679ZM100.247 18.7654C100.247 19.0123 100.123 19.1358 100 19.2593C99.8765 19.3827 99.6296 19.5062 99.5062 19.5062C99.1358 19.5062 98.7654 19.1358 98.7654 18.7654V16.7901C98.1481 17.6543 97.284 18.3951 96.2963 18.8889C94.4444 19.8765 92.2222 19.8765 90.2469 19.1358C89.3827 18.7654 88.642 18.2716 87.9012 17.5309C87.284 16.9136 86.6667 16.0494 86.2963 15.1852C85.9259 14.321 85.679 13.3333 85.679 12.3457C85.679 11.358 85.8025 10.3704 86.2963 9.50617C86.6667 8.64198 87.1605 7.90123 87.9012 7.16049C88.5185 6.54321 89.3827 5.92593 90.2469 5.67901C91.1111 5.30864 92.0988 5.06173 93.0864 5.06173C94.1975 5.06173 95.3086 5.30864 96.4197 5.80247C97.4074 6.2963 98.2716 7.03704 98.8889 7.90123V0.740741C98.8889 0.37037 99.1358 0 99.6296 0C99.8765 0 100 0.123457 100.123 0.246914C100.247 0.37037 100.37 0.617284 100.37 0.740741V18.7654H100.247ZM72.0988 14.6914C72.3457 15.4321 72.8395 16.0494 73.3333 16.5432C73.8272 17.037 74.4444 17.5309 75.1852 17.7778C75.9259 18.1481 76.6667 18.2716 77.4074 18.2716C78.1481 18.2716 79.0123 18.1481 79.6296 17.7778C80.3704 17.5309 80.9877 17.037 81.4815 16.5432C81.9753 16.0494 82.4691 15.4321 82.716 14.6914C82.963 13.9506 83.2099 13.2099 83.2099 12.4691C83.2099 11.7284 83.0864 10.8642 82.716 10.2469C82.4691 9.50617 81.9753 8.88889 81.4815 8.39506C80.9877 7.90123 80.3704 7.40741 79.6296 7.16049C78.8889 6.91358 78.1481 6.66667 77.4074 6.66667C76.6667 6.66667 75.9259 6.79012 75.1852 7.16049C74.4444 7.40741 73.8272 7.90123 73.3333 8.39506C72.8395 8.88889 72.3457 9.50617 72.0988 10.2469C71.8519 10.9877 71.6049 11.7284 71.6049 12.4691C71.6049 13.2099 71.7284 13.9506 72.0988 14.6914ZM70.7407 9.62963C71.4815 7.90123 72.8395 6.54321 74.5679 5.80247C75.4321 5.4321 76.4198 5.18518 77.4074 5.18518C78.3951 5.18518 79.3827 5.30864 80.2469 5.80247C81.1111 6.17284 81.8519 6.66667 82.4691 7.40741C83.0864 8.02469 83.7037 8.88889 84.0741 9.75309C84.8148 11.6049 84.8148 13.5802 84.0741 15.4321C83.7037 16.2963 83.2099 17.037 82.4691 17.7778C81.8519 18.3951 80.9877 19.0123 80.2469 19.3827C79.3827 19.7531 78.3951 20 77.4074 20C76.4198 20 75.4321 19.7531 74.5679 19.3827C73.7037 19.0123 72.963 18.5185 72.2222 17.7778C70.8642 16.4198 70.1235 14.5679 70.1235 12.716C70.1235 11.4815 70.3704 10.4938 70.7407 9.62963ZM64.0741 10.8642L69.0123 18.3951C69.1358 18.5185 69.1358 18.7654 69.1358 18.8889C69.1358 19.1358 69.0123 19.2593 68.7654 19.3827C68.642 19.5062 68.3951 19.5062 68.2716 19.5062C68.0247 19.5062 67.9012 19.3827 67.7778 19.1358L62.963 11.8519L60.3704 14.321V18.642C60.3704 18.8889 60.2469 19.0123 60.1235 19.1358C60 19.2593 59.7531 19.3827 59.6296 19.3827C59.3827 19.3827 59.2593 19.2593 59.1358 19.1358C59.0123 19.0123 58.8889 18.7654 58.8889 18.642V0.740741C58.8889 0.493827 59.0123 0.37037 59.1358 0.246914C59.2593 0.123457 59.5062 0 59.6296 0C59.8765 0 60 0.123457 60.1235 0.246914C60.2469 0.37037 60.3704 0.617284 60.3704 0.740741V12.4691L67.7778 5.4321C67.9012 5.30864 68.1481 5.18518 68.2716 5.18518C68.3951 5.18518 68.642 5.30864 68.7654 5.4321C68.7654 5.4321 68.7654 5.4321 68.7654 5.55556C68.8889 5.67901 68.8889 5.80247 68.8889 6.04938C68.8889 6.2963 68.7654 6.41975 68.642 6.54321L64.0741 10.8642ZM35.4321 8.2716C35.8025 7.77778 36.1728 7.40741 36.5432 7.03704C36.9136 6.66667 37.4074 6.2963 37.9012 6.04938C38.3951 5.80247 39.0123 5.55556 39.5062 5.4321C40.1235 5.30864 40.7407 5.18518 41.2346 5.18518H41.358C41.6049 5.18518 41.7284 5.18519 41.9753 5.4321C42.0988 5.55556 42.2222 5.80247 42.2222 5.92593C42.2222 6.17284 42.0988 6.2963 41.9753 6.41975C41.8519 6.54321 41.6049 6.66667 41.4815 6.66667H41.358C40.6173 6.66667 39.7531 6.79012 39.0123 7.16049C38.2716 7.53086 37.6543 7.90123 37.1605 8.51852C36.6667 9.1358 36.1728 9.75309 35.8025 10.4938C35.4321 11.2346 35.3086 12.0988 35.3086 12.8395V18.8889C35.3086 19.1358 35.1852 19.2593 35.0617 19.3827C34.9383 19.5062 34.6914 19.6296 34.5679 19.6296C34.321 19.6296 34.1975 19.5062 34.0741 19.3827C33.9506 19.2593 33.8272 19.0123 33.8272 18.8889V5.92593C33.8272 5.67901 33.9506 5.55556 34.0741 5.4321C34.4444 5.06173 34.8148 5.06173 35.1852 5.30864C35.3086 5.4321 35.4321 5.67901 35.4321 5.80247V8.2716ZM30.3704 11.8519C30.3704 11.1111 30.1235 10.3704 29.8765 9.75309C29.6296 9.1358 29.1358 8.51852 28.642 8.02469C28.1481 7.53086 27.5309 7.16049 26.9136 6.91358C25.5556 6.41975 23.9506 6.41975 22.5926 6.91358C21.9753 7.16049 21.358 7.53086 20.8642 8.02469C20.3704 8.51852 20 9.1358 19.6296 9.75309C19.2593 10.3704 19.1358 11.1111 19.1358 11.8519H30.3704ZM18.8889 13.0864C18.8889 13.8272 19.1358 14.4444 19.5062 15.0617C20.1235 16.2963 21.2346 17.284 22.4691 17.7778C23.0864 18.0247 23.8272 18.1481 24.5679 18.1481C25.4321 18.1481 26.2963 18.0247 27.037 17.6543C27.7778 17.284 28.3951 16.7901 28.8889 16.1728C29.1358 15.9259 29.3827 15.9259 29.6296 16.0494C29.7531 16.0494 29.8765 16.1728 30 16.2963C30.1235 16.4198 30.1235 16.5432 30.1235 16.7901C30.1235 17.037 30 17.1605 29.8765 17.284C29.2593 18.0247 28.5185 18.5185 27.6543 18.8889C25.8025 19.8765 23.5802 19.8765 21.7284 19.1358C20.8642 18.7654 20.1235 18.2716 19.3827 17.5309C18.0247 16.1728 17.284 14.321 17.284 12.3457C17.284 11.358 17.4074 10.3704 17.9012 9.50617C18.2716 8.64198 18.7654 7.90123 19.5062 7.16049C20.1235 6.54321 20.9877 5.92593 21.8519 5.55556C22.716 5.18518 23.7037 4.93827 24.6914 4.93827C25.679 4.93827 26.6667 5.18518 27.5309 5.55556C29.2593 6.2963 30.6173 7.65432 31.358 9.38272C31.7284 10.2469 31.9753 11.2346 31.9753 12.2222C31.9753 12.4691 31.8519 12.5926 31.7284 12.716C31.6049 12.8395 31.358 12.963 31.2346 12.963L18.8889 13.0864ZM4.32099 11.6049H12.2222L8.39506 2.34568L4.32099 11.6049ZM12.963 13.0864H3.7037L1.23457 19.0123C1.11111 19.3827 0.740741 19.5062 0.37037 19.3827C0.246914 19.2593 0 19.1358 0 19.0123C0 18.7654 0 18.642 0 18.3951L7.65432 0.493827C7.77778 0.246914 8.02469 0 8.27161 0C8.51852 0 8.88889 0.123457 8.88889 0.493827L16.5432 18.5185C16.6667 18.642 16.6667 18.8889 16.5432 19.0123C16.5432 19.1358 16.2963 19.3827 16.1728 19.3827C16.0494 19.5062 15.8025 19.5062 15.5556 19.3827C15.4321 19.2593 15.1852 19.1358 15.1852 19.0123L12.963 13.0864ZM49.0123 13.0864C48.7654 12.8395 48.2716 12.716 47.9012 13.0864L42.8395 18.1481C42.4691 18.3951 42.4691 18.8889 42.8395 19.2593C43.2099 19.5062 43.7037 19.5062 43.9506 19.2593L49.0123 14.1975C49.2593 13.9506 49.2593 13.4568 49.0123 13.0864ZM56.0494 11.6049C55.5556 11.6049 55.3086 11.9753 55.3086 12.3457C55.3086 15.4321 52.716 18.0247 49.6296 18.0247C49.3827 18.0247 49.1358 18.0247 48.8889 17.9012L50.8642 15.9259C51.2346 15.679 51.2346 15.1852 50.8642 14.8148C50.6173 14.4444 50 14.4444 49.7531 14.8148L46.9136 17.7778C46.5432 18.0247 46.5432 18.5185 46.9136 18.8889L47.037 19.0123C47.1605 19.1358 47.1605 19.1358 47.284 19.1358C48.0247 19.3827 48.7654 19.5062 49.6296 19.5062C53.7037 19.5062 56.9136 16.2963 56.9136 12.2222C56.9136 11.9753 56.5432 11.6049 56.0494 11.6049ZM42.963 15.1852L43.0864 15.3086C43.2099 15.4321 43.4568 15.5556 43.7037 15.5556C43.9506 15.5556 44.0741 15.4321 44.1975 15.3086L47.284 12.3457C47.6543 12.0988 47.6543 11.4815 47.284 11.2346C47.037 10.9877 46.5432 10.8642 46.1728 11.2346L44.0741 13.2099C44.0741 12.963 43.9506 12.5926 43.9506 12.3457C43.9506 9.25926 46.5432 6.66667 49.6296 6.66667C50.1235 6.66667 50.3704 6.2963 50.3704 5.80247C50.3704 5.4321 50 5.06173 49.6296 5.06173C45.5556 5.06173 42.3457 8.2716 42.3457 12.3457C42.3457 13.2099 42.4691 13.9506 42.7161 14.8148C42.8395 15.0617 42.8395 15.0617 42.963 15.1852Z" fill="#fff"/><path d="M53.4571 9.89952C52.7164 9.89952 52.0991 9.28224 52.0991 8.5415C52.0991 7.80076 52.7164 7.18347 53.4571 7.18347C54.1978 7.18347 54.8151 7.80076 54.8151 8.5415C54.8151 9.28224 54.1978 9.89952 53.4571 9.89952ZM55.309 5.45508C53.5806 5.45508 52.0991 6.31928 50.741 7.43039C50.3707 7.6773 50.1238 8.04767 49.7534 8.04767C48.3954 8.04767 47.6546 8.78841 46.9139 9.77607C46.667 9.89952 46.7904 10.023 47.0373 10.1464C47.7781 10.3933 48.3954 10.6403 49.0127 11.0106C48.8892 11.2575 49.0127 11.5045 49.1361 11.6279L50.2472 12.739C50.3707 12.8625 50.6176 12.9859 50.8645 12.8625C51.2349 13.4798 51.4818 14.0971 51.7287 14.8378C51.8522 15.2082 51.9756 15.3316 52.346 15.0847C53.0867 14.4674 53.9509 13.7267 54.0744 12.6156C54.0744 11.9983 54.4448 11.6279 54.6917 11.1341C55.6793 9.89952 56.5435 8.41804 56.667 6.68965C56.667 5.45508 56.4201 5.45508 55.309 5.45508Z" fill="#E96EB4"/>
    </symbol>
    <symbol id="back" viewBox="0 0 14 24">
      <path d="M0.93934 10.9393C0.353553 11.5251 0.353553 12.4749 0.93934 13.0607L10.4853 22.6066C11.0711 23.1924 12.0208 23.1924 12.6066 22.6066C13.1924 22.0208 13.1924 21.0711 12.6066 20.4853L4.12132 12L12.6066 3.51472C13.1924 2.92893 13.1924 1.97919 12.6066 1.3934C12.0208 0.807611 11.0711 0.807611 10.4853 1.3934L0.93934 10.9393ZM5 10.5H2V13.5H5V10.5Z" fill="#2443BE"/>
    </symbol>
    <symbol id="calendar" viewBox="0 0 22 22">
      <path d="M6.875 11H4.125V8.25H6.875V11ZM12.375 8.25H9.625V11H12.375V8.25ZM17.875 8.25H15.125V11H17.875V8.25ZM6.875 12.375H4.125V15.125H6.875V12.375ZM12.375 12.375H9.625V15.125H12.375V12.375ZM17.875 12.375H15.125V15.125H17.875V12.375ZM6.875 16.5H4.125V19.25H6.875V16.5ZM12.375 16.5H9.625V19.25H12.375V16.5ZM5.5 4.125C6.25934 4.125 6.875 3.50999 6.875 2.75V1.375C6.875 0.614969 6.25934 0 5.5 0C4.74066 0 4.125 0.615012 4.125 1.375V2.75C4.125 3.51003 4.74066 4.125 5.5 4.125ZM22 2.75V22H0V2.75H3.4375C3.4375 3.88734 4.36266 4.8125 5.5 4.8125C6.63734 4.8125 7.5625 3.88734 7.5625 2.75H14.4375C14.4375 3.88734 15.3627 4.8125 16.5 4.8125C17.6373 4.8125 18.5625 3.88734 18.5625 2.75H22ZM20.625 6.875H1.375V20.625H20.625V6.875ZM16.5 4.125C17.26 4.125 17.875 3.50999 17.875 2.75V1.375C17.875 0.614969 17.26 0 16.5 0C15.74 0 15.125 0.615012 15.125 1.375V2.75C15.125 3.51003 15.74 4.125 16.5 4.125Z"/>
    </symbol>
    <symbol id="close" viewBox="0 0 25 25">
      <path clip-rule="evenodd" d="M14.711 12.4997L24.5419 2.6688C25.1527 2.05854 25.1527 1.06835 24.5419 0.458089C23.9311 -0.152696 22.9425 -0.152696 22.3312 0.458089L12.5003 10.289L2.66932 0.458089C2.05854 -0.152696 1.06887 -0.152696 0.458089 0.458089C-0.152696 1.06835 -0.152696 2.05854 0.458089 2.6688L10.2901 12.4997L0.458089 22.3307C-0.152696 22.9415 -0.152696 23.9311 0.458089 24.5414C0.763482 24.8463 1.16372 24.999 1.56344 24.999C1.96369 24.999 2.36393 24.8463 2.66932 24.5409L12.5003 14.7099L22.3312 24.5409C22.6366 24.8463 23.0374 24.999 23.4366 24.999C23.8368 24.999 24.2365 24.8463 24.5419 24.5409C25.1527 23.9306 25.1527 22.9404 24.5419 22.3302L14.711 12.4997Z"/>
    </symbol>
    <symbol id="glass" viewBox="0 0 45 15">
      <path d="M43.5938 6.15625H42.1875C42.1875 3.18791 39.6689 0.78125 36.5625 0.78125H30.9375C28.8816 0.78125 27.1034 1.8455 26.1214 3.41903C25.1409 2.62353 23.8869 2.125 22.5 2.125C21.1131 2.125 19.8591 2.62353 18.8786 3.41903C17.8966 1.8455 16.1184 0.78125 14.0625 0.78125H8.4375C5.33109 0.78125 2.8125 3.18791 2.8125 6.15625H1.40625C0.628945 6.15625 0 6.75724 0 7.5C0 8.24276 0.628945 8.84375 1.40625 8.84375H2.8125C2.8125 11.8121 5.33109 14.2188 8.4375 14.2188H14.0625C17.1689 14.2188 19.6875 11.8121 19.6875 8.84375V7.5C19.6875 6.01852 20.9496 4.8125 22.5 4.8125C24.0504 4.8125 25.3125 6.01852 25.3125 7.5V8.84375C25.3125 11.8121 27.8311 14.2188 30.9375 14.2188H36.5625C39.6689 14.2188 42.1875 11.8121 42.1875 8.84375H43.5938C44.3711 8.84375 45 8.24276 45 7.5C45 6.75724 44.3711 6.15625 43.5938 6.15625ZM16.875 8.84375C16.875 10.3252 15.6129 11.5312 14.0625 11.5312H8.4375C6.88711 11.5312 5.625 10.3252 5.625 8.84375V6.15625C5.625 4.67477 6.88711 3.46875 8.4375 3.46875H14.0625C15.6129 3.46875 16.875 4.67477 16.875 6.15625V8.84375ZM39.375 8.84375C39.375 10.3252 38.1129 11.5312 36.5625 11.5312H30.9375C29.3871 11.5312 28.125 10.3252 28.125 8.84375V6.15625C28.125 4.67477 29.3871 3.46875 30.9375 3.46875H36.5625C38.1129 3.46875 39.375 4.67477 39.375 6.15625V8.84375Z" fill="#fff"/>
    </symbol>
    <symbol id="glass1" viewBox="0 0 45 15">
      <path d="M43.5938 6.15625H42.1875C42.1875 3.18791 39.6689 0.78125 36.5625 0.78125H30.9375C28.8816 0.78125 27.1034 1.8455 26.1214 3.41903C25.1409 2.62353 23.8869 2.125 22.5 2.125C21.1131 2.125 19.8591 2.62353 18.8786 3.41903C17.8966 1.8455 16.1184 0.78125 14.0625 0.78125H8.4375C5.33109 0.78125 2.8125 3.18791 2.8125 6.15625H1.40625C0.628945 6.15625 0 6.75724 0 7.5C0 8.24276 0.628945 8.84375 1.40625 8.84375H2.8125C2.8125 11.8121 5.33109 14.2188 8.4375 14.2188H14.0625C17.1689 14.2188 19.6875 11.8121 19.6875 8.84375V7.5C19.6875 6.01852 20.9496 4.8125 22.5 4.8125C24.0504 4.8125 25.3125 6.01852 25.3125 7.5V8.84375C25.3125 11.8121 27.8311 14.2188 30.9375 14.2188H36.5625C39.6689 14.2188 42.1875 11.8121 42.1875 8.84375H43.5938C44.3711 8.84375 45 8.24276 45 7.5C45 6.75724 44.3711 6.15625 43.5938 6.15625ZM16.875 8.84375C16.875 10.3252 15.6129 11.5312 14.0625 11.5312H8.4375C6.88711 11.5312 5.625 10.3252 5.625 8.84375V6.15625C5.625 4.67477 6.88711 3.46875 8.4375 3.46875H14.0625C15.6129 3.46875 16.875 4.67477 16.875 6.15625V8.84375ZM39.375 8.84375C39.375 10.3252 38.1129 11.5312 36.5625 11.5312H30.9375C29.3871 11.5312 28.125 10.3252 28.125 8.84375V6.15625C28.125 4.67477 29.3871 3.46875 30.9375 3.46875H36.5625C38.1129 3.46875 39.375 4.67477 39.375 6.15625V8.84375Z" fill="#fff"/>
    </symbol>
    <symbol id="loc" viewBox="0 0 15 18">
      <path d="M7.41532 0.301758C3.77575 0.301758 0.824707 3.2585 0.824707 6.9051C0.824707 10.5517 6.31695 17.9106 7.41536 17.9106C8.5138 17.9106 14.006 10.5517 14.006 6.9051C14.006 3.2585 11.0549 0.301758 7.41532 0.301758ZM7.41532 11.3073C4.99213 11.3073 3.02163 9.33185 3.02163 6.9051C3.02163 4.47835 4.99213 2.50285 7.41532 2.50285C9.83859 2.50285 11.809 4.47835 11.809 6.9051C11.809 9.33185 9.83862 11.3073 7.41532 11.3073Z" fill="#fff"/>
    </symbol>
    <symbol id="mail" viewBox="0 0 16 12">
      <path d="M16 9.99994C16 10.3507 15.9013 10.6759 15.7433 10.962L10.6914 5.30966L15.6885 0.937654C15.8829 1.24614 16 1.6085 16 2.00009V9.99994ZM8.00002 6.33595L14.9533 0.251997C14.668 0.0957933 14.3467 0 14 0H1.99999C1.65296 0 1.33154 0.0957933 1.04736 0.251997L8.00002 6.33595ZM9.93854 5.96788L8.32904 7.37704C8.2349 7.45905 8.11767 7.50001 8.00002 7.50001C7.88229 7.50001 7.76507 7.45905 7.67092 7.37704L6.06107 5.96781L0.945304 11.6924C1.25194 11.8847 1.61131 12 1.99995 12H14C14.3886 12 14.7482 11.8847 15.0547 11.6924L9.93854 5.96788ZM0.311551 0.937621C0.117194 1.2461 0 1.60847 0 2.00009V9.99997C0 10.3507 0.0982006 10.6759 0.256845 10.962L5.30811 5.3087L0.311551 0.937621Z"/>
    </symbol>
    <symbol id="more" viewBox="0 0 14 24">
      <path d="M13.0607 13.0607C13.6464 12.4749 13.6464 11.5251 13.0607 10.9393L3.51472 1.3934C2.92893 0.807611 1.97919 0.807611 1.3934 1.3934C0.807613 1.97918 0.807613 2.92893 1.3934 3.51472L9.87868 12L1.3934 20.4853C0.807611 21.0711 0.807611 22.0208 1.3934 22.6066C1.97918 23.1924 2.92893 23.1924 3.51472 22.6066L13.0607 13.0607ZM11 13.5L12 13.5L12 10.5L11 10.5L11 13.5Z"/>
    </symbol>
    <symbol id="pdf" viewBox="0 0 394.8 394.8">
      <path d="M218.4,167.6c-2.8-2.4-6-4-9.6-5.2c-3.6-0.8-7.6-1.2-12.4-1.2H178c-3.2,0-5.2,0.8-6.8,2c-1.2,1.2-2,3.6-2,6.8v51.6 c0,2.4,0,4,0.8,5.6c0.4,1.6,1.2,2.4,2.4,3.2c1.2,0.8,3.2,1.2,6,1.2h18.4c3.2,0,6-0.4,8.8-0.8c2.4-0.4,4.8-1.2,7.2-2 c2.4-1.2,4.4-2.4,6-4c2.4-2.4,4.4-4.8,6-7.6c1.6-2.8,2.8-6,3.6-9.6c0.8-3.6,1.2-7.2,1.2-11.6C229.6,183.6,226,174,218.4,167.6z M208,217.2c-1.2,0.8-2.4,1.6-3.6,2c-1.6,0.4-2.8,0.8-4,0.8s-3.2,0-5.6,0H184v-48h9.6c4.4,0,8,0.4,11.2,1.6 c3.2,0.8,5.6,3.2,7.6,6.8c2,3.6,3.2,8.8,3.2,15.6C215.2,206.4,212.8,213.2,208,217.2z"/><path d="M345.6,78.8l-0.4-0.4V78l-76-76l-0.4-0.4c0,0-0.4,0-0.4-0.4c0,0-0.4,0-0.4-0.4C266.8,0,265.6,0,264,0H75.6 c-7.2,0-14,2.8-18.8,7.6L56.4,8c-4.8,4.8-8,12-8,19.2v340.4c0,7.6,3.2,14.4,8,19.2c4.8,4.8,12,8,19.2,8h243.6 c7.6,0,14.4-3.2,19.2-8s8-12,8-19.2V82.8C346.4,81.2,346,80,345.6,78.8z M271.6,28.8L316.8,74h-33.2c-3.2,0-6.4-1.2-8.4-3.6 c-2-2-3.6-5.2-3.6-8.4V28.8z M329.2,367.6c0,2.8-1.2,5.2-3.2,7.2s-4.4,3.2-7.2,3.2H75.6c-2.8,0-5.2-1.2-7.2-2.8 c-2-2-2.8-4.4-2.8-7.2V26.8c0-2.8,1.2-5.2,3.2-7.2l0.4-0.4c2-1.6,4.4-2.8,6.8-2.8h179.2v45.2c0,8,3.2,15.2,8.8,20.8 c5.2,5.2,12.8,8.4,20.8,8.4h44.4V367.6z"/><path d="M150.8,166.8c-2-2-4.4-3.2-7.6-4c-2.8-0.8-7.2-1.2-12.4-1.2h-18.4c-3.2,0-5.6,0.8-6.8,2c-1.6,1.2-2,3.6-2,6.8v54.4 c0,2.8,0.8,4.8,2,6.4c1.2,1.6,3.2,2,5.2,2s3.6-0.8,5.2-2.4c1.2-1.6,2-3.6,2-6.4v-20h13.2c8.8,0,15.2-2,19.6-5.6 c4.4-3.6,6.8-9.2,6.8-16.4c0-3.2-0.4-6.4-1.6-9.2C154.4,170.8,152.8,168.4,150.8,166.8z M141.2,189.2c-1.2,1.6-2.8,2.8-5.2,3.6 c-2.4,0.8-5.2,1.2-8.4,1.2H118v-21.6h9.6c6.4,0,10.4,1.2,12.8,3.2c2,2,2.8,4.4,2.8,7.6C142.8,185.6,142.4,187.6,141.2,189.2z"/><path d="M250.8,160.8c-2.4,0.4-4,0.8-5.2,1.6c-1.2,0.4-2.4,1.6-2.8,2.8c-0.8,1.2-0.8,2.8-0.8,5.2v54c0,2.8,0.8,5.2,2,6.4 c1.2,1.6,3.2,2,5.2,2s3.6-0.8,5.2-2c1.2-1.6,2-3.6,2-6.4v-23.2H280c2,0,3.6-0.4,4.8-1.6c1.2-0.8,1.6-2.4,1.6-4 c0-1.6-0.4-2.8-1.6-4c-1.2-0.8-2.8-1.6-4.8-1.6h-23.6v-18h28c2.4,0,4-0.4,5.2-1.6c1.2-1.2,1.6-2.4,1.6-4c0-1.6-0.4-2.8-1.6-4 c-1.2-1.2-2.8-1.6-5.2-1.6H250.8z"/>
    </symbol>
    <symbol id="pin2" viewBox="0 0 17 22">
      <path d="M8.32813 0C3.97927 0 0.453125 3.69407 0.453125 8.25002C0.453125 12.806 7.01571 22 8.32818 22C9.64068 22 16.2032 12.806 16.2032 8.25002C16.2032 3.69407 12.677 0 8.32813 0ZM8.32813 13.75C5.4327 13.75 3.07819 11.2819 3.07819 8.25002C3.07819 5.21811 5.4327 2.74998 8.32813 2.74998C11.2236 2.74998 13.5781 5.21811 13.5781 8.25002C13.5781 11.2819 11.2237 13.75 8.32813 13.75Z" fill="#58F594"/>
    </symbol>
    <symbol id="price" viewBox="0 0 27 27">
      <path d="M21.0806 18.4521C21.2735 18.7786 21.3706 19.1593 21.3706 19.5956C21.3706 20.2651 21.1712 20.8219 20.7726 21.2686C20.3734 21.7153 19.7986 21.9789 19.0453 22.0578V23.2031H18.0862V22.0628C16.8323 21.934 16.0561 21.204 15.7561 19.8758L17.239 19.4888C17.3759 20.3244 17.8309 20.7427 18.6035 20.7427C18.9645 20.7427 19.2314 20.6539 19.4013 20.4739C19.5712 20.2947 19.6569 20.0802 19.6569 19.8264C19.6569 19.5641 19.5712 19.365 19.4013 19.2315C19.2314 19.0964 18.8526 18.9253 18.2659 18.7176C17.7386 18.5347 17.3265 18.3547 17.0297 18.1738C16.7333 17.9956 16.4926 17.7468 16.3082 17.4253C16.1217 17.1025 16.0295 16.7267 16.0295 16.2997C16.0295 15.7393 16.196 15.2336 16.5256 14.7851C16.8569 14.3371 17.3758 14.0636 18.0861 13.9632V13.0783H19.0452V13.9632C20.1165 14.0918 20.812 14.6982 21.1285 15.7824L19.8048 16.3244C19.548 15.5813 19.1506 15.2089 18.6102 15.2089C18.3398 15.2089 18.1224 15.2912 17.9591 15.4578C17.7944 15.6242 17.7121 15.8253 17.7121 16.0626C17.7121 16.3033 17.7911 16.4877 17.9493 16.6179C18.1077 16.7464 18.4453 16.9064 18.9645 17.0957C19.5332 17.3034 19.9814 17.5011 20.3042 17.6858C20.6289 17.8706 20.886 18.1275 21.0806 18.4521ZM27 18.1405C27 22.8011 23.2231 26.5782 18.5627 26.5782C13.9021 26.5782 10.125 22.8011 10.125 18.1405C10.125 13.4802 13.9021 9.70305 18.5627 9.70305C23.2231 9.70305 27 13.4802 27 18.1405ZM25.3127 18.1405C25.3127 14.4179 22.2853 11.3906 18.5627 11.3906C14.8401 11.3906 11.8126 14.4179 11.8126 18.1405C11.8126 21.8633 14.8401 24.8907 18.5627 24.8907C22.2853 24.8907 25.3127 21.8633 25.3127 18.1405ZM13.5 2.9531H23.6251C24.0915 2.9531 24.4686 2.66952 24.4686 2.32018V1.05451C24.4686 0.705224 24.0915 0.421875 23.6251 0.421875H13.5C13.0336 0.421875 12.6562 0.705224 12.6562 1.05451V2.32018C12.6563 2.66952 13.0336 2.9531 13.5 2.9531ZM13.5 6.32808H23.6251C24.0915 6.32808 24.4686 6.04462 24.4686 5.69527V4.42966C24.4686 4.08026 24.0915 3.79674 23.6251 3.79674H13.5C13.0336 3.79674 12.6562 4.0802 12.6562 4.42966V5.69533C12.6563 6.04461 13.0336 6.32808 13.5 6.32808ZM0.843647 23.2031H10.794C10.2898 22.4318 9.89924 21.5797 9.64054 20.6718H0.843647C0.377335 20.6718 0 20.9551 0 21.3049V22.5702C0 22.9195 0.377335 23.2031 0.843647 23.2031ZM10.9687 24.0469H0.843647C0.377335 24.0469 0 24.3302 0 24.6795V25.9453C0 26.2946 0.377335 26.5782 0.843647 26.5782H10.9687C11.4351 26.5782 11.8126 26.2946 11.8126 25.9453V24.6795C11.8126 24.3302 11.4352 24.0469 10.9687 24.0469ZM0.843647 19.8283H9.44283C9.34066 19.2795 9.28146 18.7175 9.28146 18.1405C9.28146 17.8556 9.29782 17.5753 9.32419 17.2969H0.843647C0.377335 17.2969 0 17.5803 0 17.9299V19.1951C0 19.5449 0.377335 19.8283 0.843647 19.8283ZM13.5 9.70305H14.7193C15.8911 9.16585 17.1896 8.8593 18.5626 8.8593C19.9334 8.8593 21.234 9.16585 22.4055 9.70305H23.6251C24.0915 9.70305 24.4686 9.41959 24.4686 9.0703V7.80464C24.4686 7.45535 24.0915 7.17172 23.6251 7.17172H13.5C13.0336 7.17172 12.6562 7.45535 12.6562 7.80464V9.0703C12.6563 9.41959 13.0336 9.70305 13.5 9.70305ZM0.843647 9.70305H10.9687C11.4351 9.70305 11.8126 9.41959 11.8126 9.0703V7.80464C11.8126 7.45535 11.4351 7.17172 10.9687 7.17172H0.843647C0.377335 7.17172 0 7.45535 0 7.80464V9.0703C0 9.41959 0.377335 9.70305 0.843647 9.70305ZM0.843647 16.4532H9.44283C9.6076 15.5567 9.90263 14.708 10.3065 13.9218H0.843647C0.377335 13.9218 0 14.2051 0 14.5545V15.8205C0 16.1698 0.377335 16.4532 0.843647 16.4532ZM0.843647 13.0781H10.794C11.094 12.6168 11.4368 12.1883 11.8126 11.7894V11.1796C11.8126 10.8303 11.4353 10.547 10.969 10.547H0.843647C0.377335 10.547 0 10.8303 0 11.1796V12.4453C0 12.7946 0.377335 13.0781 0.843647 13.0781Z" fill="#CCFE4F"/>
    </symbol>
    <symbol id="search" viewBox="0 0 19 19">
      <g clip-path="url(#clip0)"><path d="M7.38653 0C3.30852 0 0.00195312 3.30656 0.00195312 7.3846C0.00195312 11.4626 3.30852 14.7692 7.38656 14.7692C8.95472 14.7692 10.409 14.2801 11.6045 13.4469L11.6053 13.4461L17.0821 18.9228C17.1837 19.0245 17.3453 19.0271 17.4496 18.9228L18.9257 17.4468C19.0273 17.3451 19.0221 17.1766 18.9248 17.0793L13.4488 11.6034C14.282 10.4071 14.7711 8.95273 14.7711 7.3846C14.7711 3.30656 11.4646 0 7.38653 0ZM7.38653 13.0316C4.26761 13.0316 1.73948 10.5035 1.73948 7.3846C1.73948 4.26569 4.26764 1.73756 7.38653 1.73756C10.5054 1.73756 13.0336 4.26569 13.0336 7.3846C13.0336 10.5035 10.5054 13.0316 7.38653 13.0316Z" fill="#fff"/></g>
    </symbol>
    <symbol id="select" viewBox="0 0 13 5">
      <path d="M6.75 5L12.5957 0.5H0.904328L6.75 5Z" fill="#fff"/>
    </symbol>
    <symbol id="swiper" viewBox="0 0 9 16">
      <path d="M8.70711 8.70711C9.09763 8.31658 9.09763 7.68342 8.70711 7.29289L2.34315 0.928932C1.95262 0.538408 1.31946 0.538408 0.928932 0.928932C0.538408 1.31946 0.538408 1.95262 0.928932 2.34315L6.58579 8L0.928932 13.6569C0.538408 14.0474 0.538408 14.6805 0.928932 15.0711C1.31946 15.4616 1.95262 15.4616 2.34315 15.0711L8.70711 8.70711ZM6 9H8V7H6V9Z"/>
    </symbol>
    <symbol id="tel" viewBox="0 0 17 17">
      <g clip-path="url(#clip0)"><path d="M15.3582 15.5459L14.2313 16.6727C14.03 16.8729 13.4407 16.9995 13.423 16.9995C9.85587 17.0296 6.42155 15.6289 3.89768 13.1045C1.36658 10.5738 -0.0356838 7.12601 0.00323023 3.54848C0.00323023 3.54639 0.132423 2.97367 0.333202 2.77445L1.46001 1.64661C1.87349 1.23366 2.66512 1.04689 3.21971 1.23157L3.45731 1.31145C4.0119 1.49613 4.59136 2.10829 4.74493 2.67168L5.31247 4.75408C5.46653 5.31853 5.25954 6.12158 4.84659 6.53453L4.09332 7.28781C4.83208 10.026 6.97929 12.1727 9.71589 12.9125L10.4692 12.1592C10.8821 11.7462 11.6873 11.5397 12.2517 11.6933L14.3342 12.2619C14.8965 12.4144 15.5087 12.9934 15.6944 13.5484L15.7733 13.786C15.9578 14.3413 15.7711 15.1329 15.3582 15.5459ZM9.56438 8.49975H10.6268C10.6268 7.32626 9.67541 6.37482 8.50192 6.37482V7.43729C9.08759 7.43729 9.56438 7.91455 9.56438 8.49975ZM13.8142 8.49975C13.8142 5.5655 11.4361 3.18739 8.50192 3.18739V4.24989C10.8458 4.24989 12.7518 6.15694 12.7518 8.49975H13.8142ZM8.50192 0V1.06246C12.6024 1.06246 15.9392 4.39927 15.9392 8.49975H17.0016C17.0016 3.8058 13.1959 0 8.50192 0Z"/></g>
    </symbol>
    <symbol id="time" viewBox="0 0 18 18">
      <path d="M9 0C4.02934 0 0 4.02955 0 9C0 13.9707 4.02934 18 9 18C13.9707 18 18 13.9707 18 9C18 4.02955 13.9707 0 9 0ZM9 16.3636C4.93323 16.3636 1.63636 13.067 1.63636 9C1.63636 4.93323 4.93323 1.63636 9 1.63636C13.0668 1.63636 16.3636 4.93323 16.3636 9C16.3636 13.067 13.0668 16.3636 9 16.3636ZM12.033 10.8761C12.3525 11.1956 12.3525 11.7137 12.033 12.0332C11.8735 12.1927 11.6638 12.2727 11.4545 12.2727C11.2453 12.2729 11.0358 12.193 10.8761 12.0332L8.42155 9.57866C8.26814 9.42525 8.18182 9.21723 8.18182 9V4.09091C8.18182 3.63907 8.54816 3.27273 9 3.27273C9.45184 3.27273 9.81818 3.63907 9.81818 4.09091V8.66127L12.033 10.8761Z" fill="#58F594"/>
    </symbol>
    <symbol id="tour-mask" viewBox="0 0 409 83.9">
      <g id="&#x421;&#x43B;&#x43E;&#x439;_2" data-name="&#x421;&#x43B;&#x43E;&#x439; 2"><path d="M409,83.9V0C313.7,116,96.6,71.4,0,34.6V83.9Z" id="&#x421;&#x43B;&#x43E;&#x439;_1-2" data-name="&#x421;&#x43B;&#x43E;&#x439; 1"/></g>
    </symbol>
    <symbol id="tour-mask2" viewBox="0 0 661 380">
      <g id="&#x421;&#x43B;&#x43E;&#x439;_2" data-name="&#x421;&#x43B;&#x43E;&#x439; 2"><path d="M660,0C466,423,204,297,0,241V375a5,5,0,0,0,5,5H661V0Z" style="filll:url(#&#x411;&#x435;&#x437;&#x44B;&#x43C;&#x44F;&#x43D;&#x43D;&#x44B;&#x439;_&#x433;&#x440;&#x430;&#x434;&#x438;&#x435;&#x43D;&#x442;)" id="&#x421;&#x43B;&#x43E;&#x439;_1-2" data-name="&#x421;&#x43B;&#x43E;&#x439; 1"/></g>
    </symbol>
    <symbol id="up" viewBox="0 0 21 24">
      <path d="M21 10.3607L10.9401 0L0 10.3607H5.40719V24H16.2216V10.3607H21Z" fill="#fff"/>
    </symbol>
    <symbol id="video" viewBox="0 0 160 160">
      <circle cx="80" cy="80" r="78.5" transform="rotate(90 80 80)" stroke="#fff" stroke-width="3"/><path d="M117 80L61.5 112.043L61.5 47.9571L117 80Z" fill="#fff"/>
    </symbol>
    <symbol id="РµСѓРґ" viewBox="0 0 17 17">
      <g clip-path="url(#clip0)"><path d="M15.3582 15.5459L14.2313 16.6727C14.03 16.8729 13.4407 16.9995 13.423 16.9995C9.85587 17.0296 6.42155 15.6289 3.89768 13.1045C1.36658 10.5738 -0.0356838 7.12601 0.00323023 3.54848C0.00323023 3.54639 0.132423 2.97367 0.333202 2.77445L1.46001 1.64661C1.87349 1.23366 2.66512 1.04689 3.21971 1.23157L3.45731 1.31145C4.0119 1.49613 4.59136 2.10829 4.74493 2.67168L5.31247 4.75408C5.46653 5.31853 5.25954 6.12158 4.84659 6.53453L4.09332 7.28781C4.83208 10.026 6.97929 12.1727 9.71589 12.9125L10.4692 12.1592C10.8821 11.7462 11.6873 11.5397 12.2517 11.6933L14.3342 12.2619C14.8965 12.4144 15.5087 12.9934 15.6944 13.5484L15.7733 13.786C15.9578 14.3413 15.7711 15.1329 15.3582 15.5459ZM9.56438 8.49975H10.6268C10.6268 7.32626 9.67541 6.37482 8.50192 6.37482V7.43729C9.08759 7.43729 9.56438 7.91455 9.56438 8.49975ZM13.8142 8.49975C13.8142 5.5655 11.4361 3.18739 8.50192 3.18739V4.24989C10.8458 4.24989 12.7518 6.15694 12.7518 8.49975H13.8142ZM8.50192 0V1.06246C12.6024 1.06246 15.9392 4.39927 15.9392 8.49975H17.0016C17.0016 3.8058 13.1959 0 8.50192 0Z" fill="#fff"/></g>
    </symbol></svg>