<svg width="22" height="22" viewBox="0 0 22 22" xmlns="http://www.w3.org/2000/svg"><path d="M6.875 11H4.125V8.25H6.875V11ZM12.375 8.25H9.625V11H12.375V8.25ZM17.875 8.25H15.125V11H17.875V8.25ZM6.875 12.375H4.125V15.125H6.875V12.375ZM12.375 12.375H9.625V15.125H12.375V12.375ZM17.875 12.375H15.125V15.125H17.875V12.375ZM6.875 16.5H4.125V19.25H6.875V16.5ZM12.375 16.5H9.625V19.25H12.375V16.5ZM5.5 4.125C6.25934 4.125 6.875 3.50999 6.875 2.75V1.375C6.875 0.614969 6.25934 0 5.5 0C4.74066 0 4.125 0.615012 4.125 1.375V2.75C4.125 3.51003 4.74066 4.125 5.5 4.125ZM22 2.75V22H0V2.75H3.4375C3.4375 3.88734 4.36266 4.8125 5.5 4.8125C6.63734 4.8125 7.5625 3.88734 7.5625 2.75H14.4375C14.4375 3.88734 15.3627 4.8125 16.5 4.8125C17.6373 4.8125 18.5625 3.88734 18.5625 2.75H22ZM20.625 6.875H1.375V20.625H20.625V6.875ZM16.5 4.125C17.26 4.125 17.875 3.50999 17.875 2.75V1.375C17.875 0.614969 17.26 0 16.5 0C15.74 0 15.125 0.615012 15.125 1.375V2.75C15.125 3.51003 15.74 4.125 16.5 4.125Z"/></svg>