<svg width="17" height="17" viewBox="0 0 17 17" xmlns="http://www.w3.org/2000/svg"><g clip-path="url(#clip0)"><path d="M15.3582 15.5459L14.2313 16.6727C14.03 16.8729 13.4407 16.9995 13.423 16.9995C9.85587 17.0296 6.42155 15.6289 3.89768 13.1045C1.36658 10.5738 -0.0356838 7.12601 0.00323023 3.54848C0.00323023 3.54639 0.132423 2.97367 0.333202 2.77445L1.46001 1.64661C1.87349 1.23366 2.66512 1.04689 3.21971 1.23157L3.45731 1.31145C4.0119 1.49613 4.59136 2.10829 4.74493 2.67168L5.31247 4.75408C5.46653 5.31853 5.25954 6.12158 4.84659 6.53453L4.09332 7.28781C4.83208 10.026 6.97929 12.1727 9.71589 12.9125L10.4692 12.1592C10.8821 11.7462 11.6873 11.5397 12.2517 11.6933L14.3342 12.2619C14.8965 12.4144 15.5087 12.9934 15.6944 13.5484L15.7733 13.786C15.9578 14.3413 15.7711 15.1329 15.3582 15.5459ZM9.56438 8.49975H10.6268C10.6268 7.32626 9.67541 6.37482 8.50192 6.37482V7.43729C9.08759 7.43729 9.56438 7.91455 9.56438 8.49975ZM13.8142 8.49975C13.8142 5.5655 11.4361 3.18739 8.50192 3.18739V4.24989C10.8458 4.24989 12.7518 6.15694 12.7518 8.49975H13.8142ZM8.50192 0V1.06246C12.6024 1.06246 15.9392 4.39927 15.9392 8.49975H17.0016C17.0016 3.8058 13.1959 0 8.50192 0Z"/></g><defs><clipPath id="clip0"><path d="M0 0H17V17H0z"/></clipPath></defs></svg>