<svg xmlns="http://www.w3.org/2000/svg" xmlns:xlink="http://www.w3.org/1999/xlink" viewBox="0 0 151.43 128"><defs><style>.cls-1,.cls-2{fill:#fff;}.cls-2{fill-rule:evenodd;}.cls-3{mask:url(#mask);}.cls-4{fill:url(#Безымянный_градиент);}.cls-5{fill:#fed3aa;}</style><mask id="mask" x="0" y="0" width="151.43" height="96.01" maskUnits="userSpaceOnUse"><g id="mask0"><path class="cls-1" d="M137,93.78l-.07-.1.77-1.68.65-1.44L139,89.1l.69-1.53.66-1.46.52-1.14c.17-.37.4-.92.61-1.37s.28-.61.42-.91.21-.49.33-.74a.71.71,0,0,1,.1-.14c.2.11.21.31.29.48.16.33.3.67.45,1l.65,1.42c.15.34.3.68.46,1s.39.89.58,1.34l.45,1c.14.32.29.69.45,1s.22.47.32.71c.25.57.51,1.14.77,1.72l.42.89c.19.42.38.85.55,1.28v.1c-.14,0-3.59.06-6.63.06H137Zm5.1-15.57c-.19.42-.38.85-.55,1.27-.26.59-.55,1.17-.8,1.75s-.43.94-.65,1.4l-.36.77c-.22.47-.43.95-.64,1.42s-.35.75-.52,1.1c-.27.61-.54,1.21-.84,1.82l-.43.93c-.21.44-.38.89-.6,1.31s-.38.84-.58,1.25-.36.74-.52,1.1-.38.81-.55,1.23a.8.8,0,0,1-.13.19h-1.32a.32.32,0,0,0-.14,0,.35.35,0,0,0-.13.08.59.59,0,0,1,0,.21v1.55h18.08V93.9a.42.42,0,0,0-.14-.09.35.35,0,0,0-.17,0h-1.34c-.07-.15-.13-.3-.19-.44l-.81-1.75-.51-1.1c-.26-.59-.54-1.18-.81-1.77l-.5-1.1-.67-1.46-.26-.55-.9-2-.42-.9-.64-1.42c-.14-.31-.29-.62-.44-.94l-.6-1.33c-.14-.31-.3-.61-.43-.92a.56.56,0,0,0-.21-.27c-.06.12-.13.22-.18.33"/><path class="cls-1" d="M9,77.73l-.09,0H8.3a1.39,1.39,0,0,0-.41,0,1.33,1.33,0,0,1-.34,0,3.4,3.4,0,0,0-.46.06c-.41.11-.82.21-1.23.36a8.43,8.43,0,0,0-1.77.9,5.55,5.55,0,0,0-.92.67l-.55.46c-.09.09-.17.2-.26.3s-.25.27-.37.42a7.17,7.17,0,0,0-1,1.55c-.12.24-.24.48-.34.72a4.21,4.21,0,0,0-.3.84,5.85,5.85,0,0,0-.21,1A5.08,5.08,0,0,0,0,86.25a7.06,7.06,0,0,0,0,1.3c0,.26.07.52.09.78a7.56,7.56,0,0,0,.23,1,8.24,8.24,0,0,0,.49,1.28,9.58,9.58,0,0,0,.73,1.28,7.66,7.66,0,0,0,1,1.17c.13.14.29.25.43.39a5.41,5.41,0,0,0,.83.67,10.91,10.91,0,0,0,1.71.94,2.47,2.47,0,0,0,.59.22c.38.06.73.2,1.1.26s.7.13,1,.17a17.59,17.59,0,0,0,1.92-.05c.37-.11.75-.12,1.1-.23s.57-.15.85-.26a9.28,9.28,0,0,0,.86-.37c.2-.09.39-.21.59-.31a6.36,6.36,0,0,0,1.4-1,.17.17,0,0,1,.06-.06,5.16,5.16,0,0,0,.73-.75c.06-.07.1-.15.15-.22-.44-.39-.85-.79-1.31-1.15-.13.14-.24.29-.36.41a7.22,7.22,0,0,1-.87.79,7,7,0,0,1-2,1.06,7.23,7.23,0,0,1-.8.21l-.81.13a1.85,1.85,0,0,0-.23,0H9.33a.66.66,0,0,0-.28,0H8.79a.49.49,0,0,0-.17,0,2.15,2.15,0,0,1-.67,0,3.4,3.4,0,0,1-.46-.06c-.33-.11-.68-.18-1-.3A7.24,7.24,0,0,1,5,92.8a7.25,7.25,0,0,1-.76-.61,5.3,5.3,0,0,1-.9-1,7.53,7.53,0,0,1-.66-1.09,7.43,7.43,0,0,1-.74-2.47,8.71,8.71,0,0,1,0-1c0-.11,0-.21,0-.32a3.5,3.5,0,0,1,.06-.72c.06-.23.06-.46.13-.69a6.85,6.85,0,0,1,.32-1,7.08,7.08,0,0,1,1.73-2.56,7.73,7.73,0,0,1,.9-.7,4.88,4.88,0,0,1,.74-.42,5.6,5.6,0,0,1,.55-.27c.35-.1.7-.23,1.07-.31a6.36,6.36,0,0,1,1.23-.15c.43,0,.87,0,1.3,0h0l.92.18a5.91,5.91,0,0,1,1.37.5,6.9,6.9,0,0,1,.95.55,6.64,6.64,0,0,1,1.22,1.15l.11.13h.15l.42-.36c.14-.12.28-.24.41-.37s.3-.19.39-.38l-.31-.37a8.29,8.29,0,0,0-1.43-1.28A9.8,9.8,0,0,0,13,78.61a7.54,7.54,0,0,0-1.43-.55,7.06,7.06,0,0,0-.91-.21,2.44,2.44,0,0,1-.47-.09,1.26,1.26,0,0,0-.28,0H9.21a.09.09,0,0,1-.09,0Z"/><path class="cls-1" d="M62.72,77.93l-.09.09V95.54s0,.06.07.06h10l0-.16V94a.34.34,0,0,0-.09-.24H64.53c-.11-.07-.08-.18-.08-.26v-6a.39.39,0,0,1,.1-.08.2.2,0,0,1,.13,0h6.46s.06,0,.06-.07V85.73c-.06-.1-.16-.07-.24-.07H64.54c-.12-.08-.09-.18-.09-.27V79.85c.11-.12.21-.09.31-.09h7.9a2.21,2.21,0,0,0,0-.25V78.17a1,1,0,0,0,0-.24Z"/><path class="cls-1" d="M122.06,79.65h2.29c.28,0,.55,0,.86,0a3.25,3.25,0,0,1,.42.11,2.8,2.8,0,0,1,.88.31,4.44,4.44,0,0,1,.73.49,3.06,3.06,0,0,1,.54.65,4.35,4.35,0,0,1,.42,1,2.3,2.3,0,0,1,.05.45v.8a3.16,3.16,0,0,1-.26,1.1,3.7,3.7,0,0,1-.55.86,3.39,3.39,0,0,1-1,.77,4.94,4.94,0,0,1-.83.25,3.56,3.56,0,0,1-.92.1c-.72.05-1.44.05-2.16,0h-1.16a.3.3,0,0,1-.23-.07V79.66h1Zm-.43-1.71h-2.29l-.1.08V95.48a.5.5,0,0,0,.05.13H121a.35.35,0,0,0,.06-.14.38.38,0,0,0,0-.15V88.43h3.52a.67.67,0,0,1,.24,0H125c.13,0,.26,0,.39,0a2.74,2.74,0,0,0,.5-.08,3.18,3.18,0,0,1,.33-.08l.55-.17a5.06,5.06,0,0,0,1.22-.58,4.91,4.91,0,0,0,.88-.76,4.49,4.49,0,0,0,.65-.9,5,5,0,0,0,.59-1.89c0-.2,0-.41,0-.62s0-.28,0-.43v-.15a3.65,3.65,0,0,1-.07-.46,2.63,2.63,0,0,0-.13-.62,3.81,3.81,0,0,0-.43-1,4.13,4.13,0,0,0-1.14-1.35,4.07,4.07,0,0,0-.55-.37,5.52,5.52,0,0,0-.55-.26q-.39-.17-.78-.3a7.28,7.28,0,0,0-1.46-.3,7.47,7.47,0,0,0-1,0Z"/><path class="cls-1" d="M49.22,78c-.1.21-.19.43-.29.64l-1.07,2.2c-.21.45-.43.9-.65,1.34-.14.29-.27.58-.42.86s-.32.7-.48,1-.31.66-.47,1-.4.85-.61,1.27-.28.54-.41.82-.32.7-.48,1-.37.74-.55,1.1-.38.81-.55,1.22l-.89,1.89-.6,1.24L41,95.25a.32.32,0,0,0,0,.14.35.35,0,0,0,0,.14s0,0,.05,0h1.76l.12-.19c.17-.36.33-.72.5-1.1s.41-.9.63-1.35.55-1.19.85-1.78.43-.94.66-1.39.38-.81.55-1.21c.07-.16.15-.33.24-.49.24-.55.47-1.07.73-1.59s.44-.94.67-1.41.58-1.24.86-1.87c.17-.37.33-.74.52-1.1.06-.11.06-.28.25-.33l.09.17.74,1.61L51,85.15l.67,1.45c.21.43.41.84.61,1.27s.55,1.17.81,1.75c.14.3.31.59.45.9s.21.55.34.77c.29.55.55,1.16.83,1.72.17.31.29.66.44,1,.07.15.15.28.22.43l.49,1.1a1.15,1.15,0,0,0,.26,0h1.69a.57.57,0,0,0,0-.13.35.35,0,0,0,0-.13,2.11,2.11,0,0,1-.18-.33l-.45-1c-.33-.71-.67-1.41-1-2.11-.17-.38-.35-.75-.55-1.1-.31-.67-.63-1.35-.95-2-.13-.27-.28-.55-.41-.81s-.29-.66-.45-1l-.62-1.28-1-2.07-.48-1-1-2.19-.73-1.51c-.16-.34-.32-.69-.5-1.05a1,1,0,0,0-.16.19"/><path class="cls-1" d="M28.45,78.06c-.14.28-.27.55-.41.85s-.24.49-.36.74c-.19.42-.38.83-.58,1.24l-1,2.07c-.19.4-.38.79-.55,1.18l-1,2.07c-.13.27-.26.55-.39.81l-.6,1.23-.95,2L22,91.5c-.33.69-.66,1.4-1,2.09-.12.27-.26.52-.38.79s-.37.77-.55,1.17a.44.44,0,0,0,.15,0h1.81c.09-.15.17-.31.25-.46l.54-1.21c.29-.61.55-1.22.86-1.83.19-.43.38-.85.58-1.28l.13-.18s1-2.16,1-2.3L26.07,87l.2-.4.58-1.21c.1-.22.19-.45.29-.67s.25-.47.36-.71c.19-.4.36-.8.55-1.19s.27-.59.41-.87a1.88,1.88,0,0,1,.16-.23c.07.12.12.23.17.33.24.51.48,1,.71,1.52.14.29.27.59.4.88s.31.6.45.9.2.46.31.69.14.29.21.44l.66,1.38c.13.26.24.55.36.79a.42.42,0,0,0,.11.15,15.39,15.39,0,0,0,.81,1.81l.1.21c.26.57.54,1.15.8,1.72.19.4.39.8.55,1.21s.37.79.55,1.18a1.77,1.77,0,0,0,.15.31c.07.11.07.27.22.33H36.9l.05-.06a.73.73,0,0,0,0-.3c-.29-.63-.55-1.23-.85-1.83L35.39,92l-.48-1c-.31-.68-.64-1.36-1-2-.12-.24-.23-.48-.34-.72-.31-.65-.62-1.31-1-2-.15-.32-.3-.65-.47-1s-.24-.55-.37-.81c-.21-.46-.43-.92-.65-1.37-.13-.26-.27-.52-.39-.78l-1-2.1-.51-1.09-.65-1.39a.36.36,0,0,0-.2.22"/><path class="cls-1" d="M25.42,90.39l.12-.45,1.52.41,1-.58-1-.58-1.52.42-.12-.47,1.38-.36-.37-1.39.46-.12.4,1.52,1,.57V88.21L27.18,87.1l.33-.34,1,1,1-1,.34.34-1.12,1.11v1.15l1-.57.41-1.52.45.12-.37,1.39,1.39.36-.13.47L30,89.19l-1,.58,1,.58,1.52-.41.13.45-1.39.37.37,1.39-.45.13-.41-1.53-1-.57v1.15l1.12,1.11-.34.34-1-1-1,1-.33-.34,1.11-1.11V90.18l-1,.57-.4,1.53-.46-.13.37-1.39Z"/><path class="cls-1" d="M104.81,78c-.09.17-.17.36-.25.55l-1.1,2.25-.42.85c-.14.29-.31.71-.48,1.06s-.36.73-.55,1.1-.33.74-.51,1.1c-.3.62-.59,1.24-.9,1.86-.18.39-.36.77-.55,1.15s-.38.84-.58,1.25-.5,1.1-.76,1.64-.47,1-.69,1.43l-.63,1.31-.21.43c-.21.43-.42.87-.62,1.3,0,.1-.14.21-.07.34h1.89a.75.75,0,0,0,.07-.12c.18-.38.35-.76.55-1.14l.68-1.48.6-1.25c0-.1.09-.21.14-.31l.33-.66S102,88,102.16,87.61l.69-1.42c.27-.57.55-1.15.81-1.73s.5-1.06.75-1.59c.14-.31.28-.63.43-.94a.08.08,0,0,1,0,0l0,0h.1l.55,1.18c.07.15.16.3.23.45l.57,1.25.37.74c.25.55.48,1.1.76,1.64s.55,1.17.85,1.76c0,0,.82,1.81.82,1.81l.72,1.51c.07.15.15.3.23.45l.7,1.56c.21.44.41.88.62,1.31a.64.64,0,0,0,.1.13h1.85l.06-.07c-.19-.39-.36-.76-.55-1.14s-.3-.59-.44-.89c-.27-.59-.54-1.18-.82-1.77-.16-.35-.35-.7-.52-1s-.36-.8-.54-1.2c-.3-.64-.62-1.29-.93-1.93l-.89-1.89c-.17-.37-.34-.74-.52-1.1-.28-.59-.55-1.17-.85-1.75l-.59-1.25c-.2-.42-.37-.77-.55-1.16-.11-.23-.21-.47-.33-.7-.28-.55-.55-1.16-.84-1.74l-.09-.15-.14.21"/><path class="cls-1" d="M104.3,89.77a.61.61,0,0,1,.1-.37.7.7,0,0,1,.3-.24.62.62,0,0,1,.38,0,.63.63,0,0,1,.34.18.7.7,0,0,1,.18.34.66.66,0,0,1-.65.78.65.65,0,0,1-.65-.65Zm.66-2-.91-.9-.34.34,1,1v.44a1.1,1.1,0,0,0-.59.34l-.38-.22-.37-1.36-.46.12.33,1.23-1.23.33.12.46,1.36-.36.39.22a1,1,0,0,0,0,.69l-.39.21L102.13,90l-.12.46,1.23.33L102.91,92l.46.12.37-1.36.38-.22a1.1,1.1,0,0,0,.59.34v.44l-1,1,.34.34.91-.9.92.89.34-.34-1-1v-.44a1.17,1.17,0,0,0,.6-.34l.38.22.36,1.36L107,92l-.33-1.23,1.23-.33L107.8,90l-1.36.36-.39-.21a1,1,0,0,0,0-.69l.39-.22,1.36.36.12-.46-1.23-.33.33-1.23-.46-.12-.36,1.36-.38.22a1.17,1.17,0,0,0-.6-.34v-.44l1-1-.34-.34Z"/><path class="cls-1" d="M82,89.47l-1.25,1.75-.73,1L78.75,94c-.32.42-.64.85-1,1.29l-.21.3s0,0,0,0l2,0a1.71,1.71,0,0,0,.18-.2c.41-.55.83-1.13,1.24-1.7l1.12-1.58c.52-.72,1.05-1.42,1.56-2.14l.37-.55Zm4.39,0,.3.42,1.39,1.9,1.38,1.91,1.38,1.9h1.89c.06,0,.12,0,.15-.06a0,0,0,0,0,0,0L91.73,94l-1.55-2.2c-.41-.55-.81-1.14-1.21-1.71l-.44-.61ZM79.82,77.92H78.08L78,78l.11.18,1,1.43c.23.33.45.66.69,1l1.06,1.49.82,1.14.59.84h2.16l-.11-.16-1-1.31c-.23-.33-.46-.66-.7-1l-.86-1.2-.69-1-.89-1.24-.11-.15A.49.49,0,0,0,80,78,.57.57,0,0,0,79.82,77.92Zm10.42.22c-.13.21-.27.39-.41.59L89,79.86l-1,1.35c-.44.61-.88,1.21-1.31,1.82l-.74,1h2.2l.68-1,1.41-2c.55-.75,1.1-1.5,1.6-2.26l.55-.78a.06.06,0,0,0,0-.06l-.06-.07H90.7a.51.51,0,0,0-.25,0,.47.47,0,0,0-.19.18"/><path class="cls-1" d="M85.8,85.3l-.57,1-.58-1-.41.23.57,1H83.67V87h1.14l-.57,1,.41.23.58-1,.57,1,.41-.23-.57-1h1.14v-.47H85.64l.57-1Z"/><path class="cls-1" d="M64,58.39l4.55-1.22-1.22-4.55-1.23.32.88,3.32-3.29.89ZM75.65,53,79,49.71l-.91-.9-2.43,2.42-2.42-2.42-.91.9Zm4.89,5.42,1.1-4.18-1.23-.34L79.19,58.5l-2.92,1.68V56.81l3.33-3.33-.9-.9-3.07,3.06-3.07-3.06-.9.9L75,56.81v3.37L72.07,58.5l-1.22-4.56-1.23.34,1.12,4.18-4.19,1.13.33,1.23,4.55-1.21,2.92,1.68h2.56l2.92-1.68,4.55,1.21.33-1.23Zm7.14-1.31-3.29-.89.88-3.32L84,52.62l-1.22,4.55,4.55,1.22Z"/><path class="cls-1" d="M98.88,61.43H101l-1.07-1.06-1.09,1.06Zm-3.12-11.6.39-1.44.27-1.48-1.48-.25-1.49-.13-.14,1.25.13-1.25L92,46.44l-.15,1.4-.13,1.26,1.26.21.27-1.37,1.39.2-.28,1.38Zm3.41-.64,1.53.55.55-1.65-1.65-.48L98,47.18l-1.6-.29-.27,1.48,1.46.38ZM95,55.33l-.65,1.1,1.1.62L96.1,56l.73-1.2.62-1.27.64-1.36.54-1.41.55-1.53-1.57-.43-.4,1.46-.51,1.4-.06.16.06-.16-1.34-.45-.51,1.31,1.33.45-.62,1.25ZM81.7,39,81,37.74,80.1,36.5l-1.23.87-1.15,1,.78,1-.79-1-1.06.93.89,1.09.81,1,1-.73-.78-1.17,1.12-.84.78,1.18Zm2-2.86,1.48-.68-.78-1.57-1.52.84-1.42.81-1.32.92L81,37.74,82.25,37ZM85,43.49l.32,1.23,1.23-.35-.32-1.23-.33-1.35-.45-1.34L85,39l-.62-1.36-.7-1.47L82.24,37l.75,1.3.62,1.36-1.26.62.54,1.29L84.15,41l.45,1.32ZM64.1,41.38,62.65,41l-1.48-.27-.25,1.48-.13,1.49-.1,1.41,1.41.15,1.26.13.2-1.25-1.37-.28.21-1.38,1.37.27ZM63.46,38,64,36.45l-1.65-.55-.48,1.64-.43,1.57-.29,1.61,1.48.26L63,39.53Zm6.14,4.18,1.1.64.62-1.1L70.22,41,69,40.31l-1.26-.66L66.41,39,65,38.47l-1.52-.55L63,39.49l1.46.4,1.4.52-.45,1.33,1.31.51.45-1.32,1.25.61,1.15.55ZM53.32,55.42l-1.3.75L50.78,57l.87,1.23,1,1.14.93,1.06,1.1-.89,1-.8-.73-1-1.17.78-.83-1.1,1.17-.78Zm-2.85-2L49.79,52l-1.57.78.84,1.52.8,1.41L50.79,57,52,56.17l-.76-1.3Zm7.29-1.39L59,51.76l-.34-1.22-1.23.31-1.36.33-1.33.45-1.41.51-1.37.63-1.47.7.8,1.41,1.32-.75L54,53.5l.15-.06-.15.07.62,1.26,1.29-.55L55.24,53l1.32-.45Zm3.46-.8.2,1-1,.27-.29-1.1,1.1-.2-.17-1,.18,1Zm-2.07,6.48-.86.59-.66-.92,1-.55Zm3.11-6.64L63.32,51,63.22,50l-1.06.08L61,50.15l-1.13.2-1.24.2L59,51.77l.31,1.09.39,1.1.37,1-1,.44-1,.48-1,.55-.64-1.1-.55-1.13-1.29.55.73,1.19L56,57l.73,1,.66,1,.73.87.82-.67-.81.67.69.8L59.6,60l-.68-.8.86-.6-.62-.83.92-.52-.55-.91,1-.43-.45-1,1-.35-.37-1,1-.26-.28-1,1-.17ZM72.63,44l-.6.88-.91-.55.55-1Zm-5.77,2.1-.27,1-1-.19.19-1.1Zm6.65-1.48.81.69L75,44.5l-.8-.68-.89-.75-.94-.65-1-.75-.62,1.1-.57,1-.49,1-.43,1-1-.37L67.13,45,66,44.7l.35-1.21.42-1.18-1.31-.52-.33,1.36-.32,1.23-.21,1.25-.19,1.13-.1,1.14,1.06.1-1.05-.1L64.27,49l1,.11L65.4,48l1,.19.17-1,1,.29.26-1,1,.38.35-1,1,.45.44-1,.91.55.52-.92.86.62Zm12.36,2.3-1,.19-.26-1-.24-.91.24.91,1.1-.29Zm-5.56-2.59-.91.55L78.8,44l.93-.65ZM86,48l.08,1,1.06-.11-.08-1L87,46.73l-.2-1.13-.2-1.24-1.22.34-1.09.3-1.1.4-1,.37-.44-1-.48-1-.58-1,1.1-.64,1.13-.55-.55-1.3-1.2.73-1.09.65-1,.73-1,.66-.86.74.67.82-.67-.82-.81.69.68.82.8-.68.59.87.87-.62.51.92.91-.55.44,1,1-.46.35,1,1-.37.27,1,1-.28.18,1Zm6.2,9.77.55-.91,1,.54-.65.94Zm-.93-6.29-.3,1.1-1-.26.19-1Zm1.18,7.74L91.8,60l.82.67.69-.8.74-.89.67-.94.74-1-1.1-.61-1-.58-1-.48-.95-.43.36-1,.4-1.07.29-1.1,1.23.32,1.19.42.51-1.32L94,50.88l-1.24-.32-1.24-.2-1.14-.21-1.13-.09-.11,1,.11-1L88.19,50,88.08,51l1,.08-.19,1,1,.17-.28,1,1,.25-.38,1,1,.35-.45,1,1,.44-.55.91.91.52-.59.85Zm-2,2.23h1.37l-.69-.68.63-.73-.72-.63.55-.78-.8-.55.49-.83-.85-.47.43-.88L90,55.5l.34-.91-.91-.32.27-.93-1-.24.18-1L88,52l.1-1-1-.07V50h-1l-.07-1-1,.1-.16-1-.95.18-.24-.94-.93.26-.32-.91-.91.34-.39-.88-.88.42-.47-.85-.83.5-.55-.8L77.7,46l-.61-.75-.74.64-.64-.67L75,46l-.73-.64-.61.76-.79-.55-.55.8-.84-.5-.47.84-.87-.42-.4.89-.91-.35-.31.92-.94-.26-.23.94-1-.19-.15,1-1-.09-.06,1h-1v1l-1,.07.09,1-1,.15.19,1-.94.23.26.94-.91.31.34.91-.88.4.42.87-.85.47.5.84-.8.55.55.79-.75.61.63.74.76-.62-.62-.78.8-.55-.54-.79.84-.47-.5-.83.89-.4-.43-.87.92-.32-.35-.9,1-.24-.27-.93,1-.16L63.43,52l1-.08-.1-1h1V50l1,.1.08-1,1,.18.15-1,.94.26.23-.94.91.34.32-.91.87.42.39-.88.84.5.47-.85.78.55.55-.8.74.63.61-.75.68.69.68-.69.61.75.73-.64.55.8.79-.54.47.84.83-.5.4.88.87-.42L82,48l.9-.35.24.95.93-.27.16,1,1-.18.07,1,1-.1v1h1l-.1,1L88,52l-.18.94,1,.16-.27.93.94.24-.34.91.91.32-.42.87.88.39-.5.84.85.47-.54.78.8.55-.64.74.75.61-.69.68ZM93.6,43.52V41.9l-.14-1.61-1.65.13L92,42.07l.12,1.49h0v1.5h1.51l1.49.12.13-1.62Zm-.16-3.24.15,1.64h1.62v1.65l1.64.15L97,42l0-1.74-1.75,0Zm1.78,3.26-.14,1.64,1.65.15.13-1.65ZM93.85,54.82l.55-1.15-1.2-.41-.4,1.09ZM77.9,36.22l1.25-1L78.1,33.93l-1.25,1Zm-2.19,2,1.05-1.07L75.71,36.1l-1.06,1.09Zm8.16,5.65-.42-1.19-1.14.55.48,1ZM69.1,43.27,68,42.72l-.41,1.2,1.09.39ZM50.47,59.22l-1.24,1.05,1.13,1.16H52.5l-1.07-1.06Zm-3.6,1,1.21,1.26,1.14-1.16-1-1.25Zm9.49,1.26H58l-.81-.82-.73-.87-1,.8Zm-1.83,0h1.82l-.91-.9Zm5,0h1.4l-.7-.68ZM49.43,58,48.19,59l1,1.25,1.24-1Zm8.74-4.7-1.2.42.55,1.14,1-.48Zm-11.3,6.92-1.21,1.26h2.41Zm-2.51-.11-1.3,1.37h2.6Zm3.18-4.89-1.41,1,1,1.46,1.41-1Zm9.17-7L57,49.51l1.39-.22-.27-1.37,1.39-.09.12,1.27,1.27-.1-.12-1.26H62v1.14h1.15V47.73l.1-1.13L62,46.48H60.73v0l-1.39,0-1.41.09-1.49.13Zm-2.94.63.4,1.45,1.45-.39-.4-1.44,1.47-.25-.26-1.48-1.49.25-1.59.29Zm-3.1,1,.54,1.53,1.54-.55-.55-1.52,1.57-.43-.42-1.58-1.57.43-1.65.49Zm2.14-5.89-1.71.34.26,1.73,1.71-.34ZM49,42.71l.28,1.86-1.8.55L47.88,47l-1.75.69.6,1.79L45,50.27,45.79,52l-1.6,1,.9,1.65-1.52,1.1,1,1.57L43.2,58.55,44.38,60l1.41-1.25L44.62,57.3l1.51-1.1-1-1.57,1.61-1L45.8,52l1.68-.84.7,1.6L49.75,52l-.7-1.59,1.62-.63-.55-1.64-1.65.62L49,50.39l-.55-1.65L47.87,47l1.81-.55-.44-1.83,1.85-.37-.28-1.87Zm8.81.81H56.13l-1.61.15.13,1.64,1.65-.14L57.79,45v0h1.5v-1.5l.12-1.49-1.62-.13Zm.15-3.23-1.72-.12-1.74,0,0,1.73.12,1.75,1.62-.15V41.93h1.62Zm0,0-.15,1.64,1.65.14.15-1.65Zm2.26-3.18-1.73-.26-.31,1.7,1.73.27Zm11.46,1.5-.78,1.18,1.14.83.77-1.16,1,.92-.8,1,1,.83.8-1,.88.89-.78.84.82.81.81-.81.88-.73-.79-1-.89-.94-.89.9.89-.9-1-1-1.06-.93-1.15-1ZM69.13,37l-.75,1.3,1.3.76.74-1.3,1.22.86.86-1.23-1.18-.85L70,35.59Zm-2.9-1.49L65.53,37l1.48.68.7-1.46,1.41.8.82-1.41-1.37-.79-1.52-.84Zm4.23-3.62,1.1-1.52L70,29.29l-1.09,1.52-1.65-.9-1,1.61-1.73-.76-.85,1.69-1.78-.6-.69,1.76-1.83-.44L58.83,35,57,34.7l-.37,1.85-1.88-.12-.21,1.88-1.89,0,0,1.88-1.86.22.11,1.88,1.88-.21-.12-1.88,1.88-.05,0-1.88,1.88.11.22-1.87,1.86.28L58.83,35l1.84.44.55-1.81,1.78.6-.64,1.65,1.65.55.63-1.65,1.59.7L67,33.9l-1.59-.7-.77,1.56.77-1.56.84-1.69,1.64.9,1-1.6Zm1.46,1-1.46-1-1,1.4,1.46,1Zm2.39-2.75L72.83,28.9l-1.25,1.42,1.48,1.18Zm1.4,1.34,1.36-1.3-1.36-1.3-1.38,1.3Zm0,4.69L74.55,35l-1.24-1-1.06,1.24,1.26,1,1.14,1,1.06-1.07,1.05,1.07,1.15-1-1-1.24ZM77,32.62l-1.25-1.2-1.26,1.2L73.3,33.93l1.25,1,1.16-1.15L76.86,35l1.25-1L77,32.62Zm5,.66-1-1.41-1.46,1,1.05,1.41Zm7,9.17-1.38.27.22,1.39,1.36-.27.1,1.39L88,45.35l.1,1.27,1.25-.12v1.24H88.25V48.9H89.4l1.12.08.12-1.25V46.46h0l0-1.39-.1-1.41-.13-1.5Zm-.63-2.94-1.46.4.39,1.45L88.74,41,89,42.44l1.48-.27-.25-1.48-.29-1.59Zm-1-3.1L85.85,37l.55,1.53,1.52-.55.43,1.57,1.58-.42-.43-1.57L89,35.88Zm5.54.43,1.87-.28-.37-1.85L92.55,35,92,33.18l-1.84.44-.69-1.75-1.79.59-.84-1.69-1.73.76-1-1.61-1.64.9L81.36,29.3l-1.57,1.05-1.25-1.41-1.47,1.18,1.25,1.41,1.47-1.18,1.1,1.52,1.57-1,1,1.61,1.64-.9.84,1.68-1.6.7.78,1.56,1.6-.7.62,1.65L89,35.88l-.63-1.64-1.65.54,1.65-.54,1.79-.61.54,1.82L92.52,35Zm.34,1.71-.35-1.71-1.73.26.36,1.72ZM100,45.93l.25-1.73-1.71-.34-.26,1.73Zm-5,15.5-.82-.82-.81.82Zm3.51-4-1.16-.78-.84,1.14,1.14.76-.91,1-1-.81-.82,1,1,.8-.9.88h1.8l-.9-.89.9.89,1-1,.94-1.05,1-1.14Zm1.65-2.52-1.31-.75-.75,1.3,1.3.74-.86,1.22,1.23.85.87-1.22.92-1.33Zm1.49-2.9-1.47-.7-.68,1.48,1.47.7-.81,1.41,1.41.82.81-1.41.83-1.53Zm2.65,5.68,1-1.45-1.41-1-1,1.46Zm.38-8.23L104,51l.68-1.59Zm3.16,6.33-1.52-1.1.9-1.64-1.61-1,.75-1.73-1.69-.84.6-1.79L103.51,47l.45-1.84-1.81-.55.28-1.87-1.85-.37.12-1.88-1.88-.21,0-1.89-1.88-.05-.21-1.87-1.89.12L95,38.46l1.87-.11.05,1.87,1.89.05-.12,1.88,1.88.21-.29,1.87,1.86.37-.45,1.84,1.81.55-.6,1.78-1.64-.64-.55,1.65,1.65.64L101.66,52l1.57.77.7-1.59-1.56-.77,1.56.76,1.69.84-.91,1.65,1.62,1-1,1.57,1.52,1.1Zm-.86,4.3,1.18-1.48-1.42-1.25-1.18,1.47Zm-6,1.36,1.14-1.16,1-1.25-1.24-1-1,1.26-1,1.14Zm4.68,0-1.2-1.26L103.16,59l-1,1.25,1.14,1.16Zm2.6,0L107,60l-1.3,1.38Z"/><path class="cls-1" d="M92.2,9.6l2.4-7.38.52.17-2.4,7.38"/><path class="cls-1" d="M75.43,6.22V0H76V6.22"/><path class="cls-1" d="M89.66,8.22l1.69-6.33.54.14-1.7,6.33"/><path class="cls-1" d="M87,6.56,88,2l.54.12-1,4.51"/><path class="cls-1" d="M84.26,5.27l.46-2.94.54.09L84.8,5.35"/><path class="cls-1" d="M81.33,5l.33-3.13.55.06L81.88,5"/><path class="cls-1" d="M78.36,5.38,78.59,1l.55,0L78.9,5.42"/><path class="cls-1" d="M95.06,9.9l2.33-6.06L97.9,4,95.57,10.1"/><path class="cls-1" d="M120.57,28.29l3.92-2.84.32.44-3.91,2.84"/><path class="cls-1" d="M98.16,10.21l2-4.39.51.23-2,4.38"/><path class="cls-1" d="M107.69,16.72l3.9-5.37.44.33-3.9,5.37"/><path class="cls-1" d="M101.17,10.67,102.53,8l.49.25-1.36,2.66"/><path class="cls-1" d="M103.77,12l1.49-2.56.47.27-1.48,2.57"/><path class="cls-1" d="M105.78,14.38l2.65-4.08.46.29-2.65,4.09"/><path class="cls-1" d="M119.52,25.43l2.36-1.91.35.43-2.37,1.91"/><path class="cls-1" d="M117.51,23.14,119.86,21l.37.41-2.35,2.11"/><path class="cls-1" d="M114.7,21.8l3.74-3.75.38.39-3.74,3.74"/><path class="cls-1" d="M112.16,20.31l4.42-4.91.41.37-4.42,4.9"/><path class="cls-1" d="M109.61,18.91l4.88-6,.43.34-4.88,6"/><path class="cls-1" d="M121.74,31l5.2-3.38.3.46L122,31.5"/><path class="cls-1" d="M132.39,61h3v.55h-3"/><path class="cls-1" d="M122.66,33.92l6.72-3.87.27.47-6.71,3.88"/><path class="cls-1" d="M129.67,43.46l2.63-.86.16.52-2.62.86"/><path class="cls-1" d="M124.6,36.11l5.69-2.91.25.49-5.69,2.91"/><path class="cls-1" d="M126.42,38.41l4.69-2.08.22.5-4.69,2.09"/><path class="cls-1" d="M128.65,40.66l2.57-1,.19.51-2.57,1"/><path class="cls-1" d="M131.34,58.11l4.91-.26,0,.55-4.91.26"/><path class="cls-1" d="M130.27,55.21l6.61-.7.05.55-6.6.69"/><path class="cls-1" d="M129.3,52.47,137,51.26l.09.54L129.39,53"/><path class="cls-1" d="M129.39,49.58l6.35-1.35.12.53-6.35,1.35"/><path class="cls-1" d="M129.6,46.56l4.48-1.2.15.52-4.49,1.21"/><path class="cls-1" d="M58.62,9.77l-2.4-7.38.53-.17L59.14,9.6"/><path class="cls-1" d="M75.37,6.22V0h.55V6.22"/><path class="cls-1" d="M61.15,8.36,59.45,2,60,1.89l1.7,6.33"/><path class="cls-1" d="M63.81,6.67l-1-4.51L63.38,2l1,4.52"/><path class="cls-1" d="M66.54,5.35l-.47-2.93.54-.09.47,2.94"/><path class="cls-1" d="M69.46,5l-.33-3.12.55-.06L70,5"/><path class="cls-1" d="M72.44,5.42,72.21,1l.54,0L73,5.38"/><path class="cls-1" d="M55.76,10.1,53.44,4,54,3.84,56.28,9.9"/><path class="cls-1" d="M30.44,28.73l-3.91-2.84.32-.44,3.91,2.84"/><path class="cls-1" d="M52.68,10.43l-2-4.38.5-.23,2,4.39"/><path class="cls-1" d="M43.2,17.05l-3.9-5.37.45-.33,3.9,5.37"/><path class="cls-1" d="M49.67,10.92,48.32,8.26,48.81,8l1.35,2.66"/><path class="cls-1" d="M47.09,12.32,45.61,9.75l.47-.27L47.57,12"/><path class="cls-1" d="M45.1,14.68l-2.66-4.09.46-.29,2.66,4.08"/><path class="cls-1" d="M31.47,25.86,29.11,24l.35-.43,2.36,1.91"/><path class="cls-1" d="M33.45,23.54l-2.34-2.11.36-.41,2.35,2.12"/><path class="cls-1" d="M36.25,22.18l-3.74-3.74.39-.39,3.74,3.75"/><path class="cls-1" d="M38.77,20.67l-4.42-4.9.4-.37,4.42,4.91"/><path class="cls-1" d="M41.29,19.25l-4.87-6,.43-.34,4.87,6"/><path class="cls-1" d="M29.3,31.5l-5.2-3.38.3-.46L29.59,31"/><path class="cls-1" d="M18.94,61.54H16V61h3"/><path class="cls-1" d="M28.4,34.4l-6.71-3.88.27-.47,6.71,3.87"/><path class="cls-1" d="M21.5,44l-2.63-.86L19,42.6l2.63.86"/><path class="cls-1" d="M26.49,36.6,20.8,33.69l.25-.49,5.69,2.91"/><path class="cls-1" d="M24.7,38.92,20,36.83l.22-.5,4.69,2.08"/><path class="cls-1" d="M22.49,41.18l-2.57-1,.2-.51,2.57,1"/><path class="cls-1" d="M20,58.66l-4.91-.26,0-.55,4.91.26"/><path class="cls-1" d="M21,55.75l-6.6-.69.05-.55,6.61.7"/><path class="cls-1" d="M22,53,14.3,51.8l.08-.54L22,52.47"/><path class="cls-1" d="M21.83,50.11l-6.35-1.35.11-.53L22,49.58"/><path class="cls-1" d="M21.6,47.09l-4.49-1.21.14-.52,4.49,1.2"/><path class="cls-1" d="M37.72,26.49,43.65,43.2l-.52.18L37.2,26.67"/><path class="cls-1" d="M35.57,28.55,52.94,32.1l-.11.53L35.46,29.09"/><path class="cls-1" d="M38.52,29.17,46.1,39.35l-.44.33L38.08,29.5"/><path class="cls-1" d="M38.41,29.12l11.14,6.09-.26.47L38.15,29.6"/><path class="cls-1" d="M43.12,42.79a52.76,52.76,0,0,1,9.33-10.73l.37.4a51.77,51.77,0,0,0-9.24,10.63l-.46-.3Z"/><path class="cls-1" d="M37.05,50.3l-.27,0a11.14,11.14,0,0,0-1.47-7.77l.23-.15.14.23a10.22,10.22,0,0,0-4.56,6.93A10,10,0,0,0,31,51.3,10.34,10.34,0,0,0,32.65,57l-.23.15-.16-.22a11.39,11.39,0,0,0,4.52-6.64l.27,0,.28.05a11.94,11.94,0,0,1-4.74,7l-.24.17-.16-.24a10.87,10.87,0,0,1-1.78-6,11.11,11.11,0,0,1,.16-1.91,10.7,10.7,0,0,1,4.83-7.3l.23-.13.14.21a11.44,11.44,0,0,1,1.73,6.15,12.54,12.54,0,0,1-.17,2Z"/><path class="cls-1" d="M32.45,56.93l.17.21A12.2,12.2,0,0,0,30,60.79l-.24-.14v-.27l4.32,0v.27l-.27,0a9.48,9.48,0,0,0-1.55-3.67l.23-.15.17.21-.17-.21.23-.16a10.43,10.43,0,0,1,1.65,3.88l.06.33-5.13-.06.24-.4a13.09,13.09,0,0,1,2.8-3.81l.24-.18.16.24Z"/><path class="cls-1" d="M33.5,48.06a7.5,7.5,0,0,0,1.34.12,5.18,5.18,0,0,0,2-.34l.25.49a5.56,5.56,0,0,1-2.24.4,7.64,7.64,0,0,1-1.44-.13l.1-.55Z"/><path class="cls-1" d="M34.4,45.76v0a.31.31,0,0,0-.07-.18.26.26,0,0,0-.17-.09h0a.3.3,0,0,0-.18.06.28.28,0,0,0-.09.17v0a.28.28,0,0,0,.06.18.3.3,0,0,0,.17.1h0a.3.3,0,0,0,.18-.06.33.33,0,0,0,.1-.17.33.33,0,0,1-.1.17.3.3,0,0,1-.18.06h0a.3.3,0,0,1-.17-.1.28.28,0,0,1-.06-.18v0a.28.28,0,0,1,.09-.17.3.3,0,0,1,.18-.06h0a.26.26,0,0,1,.17.09.31.31,0,0,1,.07.18Z"/><path class="cls-1" d="M88.63,14.25,88.7,14,89,14a1,1,0,0,0,.61-.2A1,1,0,0,0,90,13a.94.94,0,0,0-.21-.61,1,1,0,0,0-.53-.36A1.15,1.15,0,0,0,89,12a1,1,0,0,0-.61.2A1.09,1.09,0,0,0,88,13a1,1,0,0,0,.21.6,1,1,0,0,0,.53.36l-.07.26-.07.27a1.51,1.51,0,0,1-.82-.55,1.54,1.54,0,0,1-.33-.94,1.93,1.93,0,0,1,.06-.41A1.58,1.58,0,0,1,88,11.8a1.53,1.53,0,0,1,.94-.32,1.75,1.75,0,0,1,.4,0,1.57,1.57,0,0,1,.83.55,1.53,1.53,0,0,1,.32.95,1.39,1.39,0,0,1-.06.4,1.49,1.49,0,0,1-.55.82,1.53,1.53,0,0,1-.94.32,1.83,1.83,0,0,1-.4-.05Z"/><path class="cls-1" d="M82.35,14.63a5.46,5.46,0,0,0,3.41,1.06h.51l.57-.06L81,24.83l-.24-.15,0-.27A42.53,42.53,0,0,1,90.35,27l-.09.26H90l-.48-10.94.47.39a5.6,5.6,0,0,0,3,1.2,2.64,2.64,0,0,0,.84-.14l.18.52a3.24,3.24,0,0,1-1,.16,6,6,0,0,1-3.37-1.31l.17-.22h.28l.46,10.74-.38-.14A41.8,41.8,0,0,0,80.71,25l-.43-.05,5.79-9.08.23.15,0,.26a2.73,2.73,0,0,1-.57,0A6,6,0,0,1,82,15.07l.36-.42Z"/><path class="cls-1" d="M122.38,55.37l.27-.06a1.66,1.66,0,0,0,.57.92,1.62,1.62,0,0,0,1,.36,1.27,1.27,0,0,0,.34,0,1.64,1.64,0,0,0,.91-.56,1.6,1.6,0,0,0,.37-1,2,2,0,0,0,0-.34,1.6,1.6,0,0,0-.57-.91,1.66,1.66,0,0,0-1-.37,2.09,2.09,0,0,0-.34,0A1.64,1.64,0,0,0,123,54a1.6,1.6,0,0,0-.36,1,2,2,0,0,0,0,.34l-.27.06-.27.05a2.28,2.28,0,0,1,0-.45,2.12,2.12,0,0,1,.49-1.36,2.22,2.22,0,0,1,1.22-.76,2.3,2.3,0,0,1,.45-.05,2.19,2.19,0,0,1,2.12,1.72,2.3,2.3,0,0,1,.05.45,2.2,2.2,0,0,1-.48,1.37,2.17,2.17,0,0,1-1.24.75,2.22,2.22,0,0,1-.45,0,2.14,2.14,0,0,1-1.36-.49,2.21,2.21,0,0,1-.76-1.23Z"/><path class="cls-1" d="M118.07,53.13l.27-.06a1.66,1.66,0,0,0,1.58,1.28,2,2,0,0,0,.34,0,1.66,1.66,0,0,0,.91-.57,1.6,1.6,0,0,0,.37-1,2,2,0,0,0,0-.34,1.66,1.66,0,0,0-1.59-1.28,1.24,1.24,0,0,0-.33,0,1.67,1.67,0,0,0-.92.56,1.72,1.72,0,0,0-.37,1,1.37,1.37,0,0,0,0,.34l-.27.06-.27,0a1.71,1.71,0,0,1,0-.45,2.15,2.15,0,0,1,.48-1.36,2.22,2.22,0,0,1,1.23-.76,2.3,2.3,0,0,1,.45,0A2.17,2.17,0,0,1,122,52.28a2.3,2.3,0,0,1,0,.45,2.17,2.17,0,0,1-1.72,2.12,2.3,2.3,0,0,1-.45,0,2.19,2.19,0,0,1-2.12-1.72Z"/><path class="cls-1" d="M119.36,59.17l.26-.06a1.63,1.63,0,0,0,.57.92,1.72,1.72,0,0,0,1,.37l.34,0a1.6,1.6,0,0,0,.91-.57,1.62,1.62,0,0,0,.36-1,1.87,1.87,0,0,0,0-.34,1.6,1.6,0,0,0-.57-.91,1.55,1.55,0,0,0-1-.37,2,2,0,0,0-.34,0,1.63,1.63,0,0,0-1.28,1.59,1.84,1.84,0,0,0,0,.33l-.26.06-.27.06a1.73,1.73,0,0,1,0-.45,2.1,2.1,0,0,1,.49-1.36,2.17,2.17,0,0,1,1.23-.77,3.42,3.42,0,0,1,.45,0,2.14,2.14,0,0,1,1.35.48,2.19,2.19,0,0,1,.77,1.21,2.28,2.28,0,0,1,0,.45,2.15,2.15,0,0,1-.49,1.37,2.21,2.21,0,0,1-1.23.76,2.12,2.12,0,0,1-.44,0,2.2,2.2,0,0,1-1.37-.48,2.17,2.17,0,0,1-.75-1.24Z"/><path class="cls-1" d="M112.62,57.16l9.73-2.06.11.53-9.73,2.07"/><path class="cls-1" d="M116.9,56.2l1.59-2.26.45.31-1.59,2.26"/><path class="cls-1" d="M119,55.77,120.76,57l-.32.45-1.75-1.23"/><path class="cls-1" d="M124.83,54.82a.2.2,0,0,0,.08.12.22.22,0,0,0,.14.05h0a.2.2,0,0,0,.12-.08.25.25,0,0,0,.06-.14v0a.22.22,0,0,0-.08-.13.24.24,0,0,0-.14-.05h0a.22.22,0,0,0-.13.08.24.24,0,0,0-.05.14v0a.24.24,0,0,1,.05-.14.22.22,0,0,1,.13-.08h0a.24.24,0,0,1,.14.05.22.22,0,0,1,.08.13v0a.25.25,0,0,1-.06.14.2.2,0,0,1-.12.08h0a.24.24,0,0,1-.14-.05.2.2,0,0,1-.08-.12Z"/><path class="cls-1" d="M120,52.13a.29.29,0,0,0,.08.13.25.25,0,0,0,.15.05h0a.22.22,0,0,0,.13-.08.24.24,0,0,0,0-.14V52a.26.26,0,0,0-.08-.13.24.24,0,0,0-.14,0h0a.29.29,0,0,0-.13.08.35.35,0,0,0-.06.14v0a.35.35,0,0,1,.06-.14.29.29,0,0,1,.13-.08h0a.24.24,0,0,1,.14,0,.26.26,0,0,1,.08.13v.05a.24.24,0,0,1,0,.14.22.22,0,0,1-.13.08h0a.25.25,0,0,1-.15-.05A.29.29,0,0,1,120,52.13Z"/><path class="cls-1" d="M121.54,59.28a.21.21,0,0,0,.07.13.24.24,0,0,0,.14.05h0a.22.22,0,0,0,.13-.08.24.24,0,0,0,0-.14v-.05a.2.2,0,0,0-.08-.12.24.24,0,0,0-.14,0h0a.25.25,0,0,0-.19.22v0a.25.25,0,0,1,.19-.22h0a.24.24,0,0,1,.14,0,.2.2,0,0,1,.08.12v.05a.24.24,0,0,1,0,.14.22.22,0,0,1-.13.08h-.05a.24.24,0,0,1-.14-.05.29.29,0,0,1-.08-.13Z"/><path class="cls-1" d="M115,56.61l-.13-.24a2.86,2.86,0,0,0,1-.9,2.93,2.93,0,0,0,.5-1.24c0-.15,0-.31,0-.47a3,3,0,0,0-.79-2l.19-.19.14.24a3,3,0,0,0-1,.89,3.1,3.1,0,0,0-.49,1.24,2.56,2.56,0,0,0,0,.47,3,3,0,0,0,.79,2l-.2.19-.13-.24.13.24-.2.19a3.55,3.55,0,0,1-.94-2.4,3.29,3.29,0,0,1,.05-.54,3.45,3.45,0,0,1,1.76-2.53l.19-.1.15.15a3.53,3.53,0,0,1,.93,2.39,3.31,3.31,0,0,1,0,.55,3.43,3.43,0,0,1-.59,1.47,3.53,3.53,0,0,1-1.18,1.06l-.18.1-.15-.15Z"/><path class="cls-1" d="M113.41,57.24l-.07-.26a3.83,3.83,0,0,1,1-.13,4,4,0,0,1,4,4v.25l-.2.06a4.22,4.22,0,0,1-1,.13,4,4,0,0,1-4-4V57l.2-.05.07.26h.27v0a3.44,3.44,0,0,0,1,2.42,3.39,3.39,0,0,0,2.42,1,3.24,3.24,0,0,0,.87-.11l.07.27h-.28v0a3.45,3.45,0,0,0-3.43-3.43,3.15,3.15,0,0,0-.87.11Z"/><path class="cls-1" d="M110,30.74V31l-3.33,0-2.19.13L99.35,32.9l-.09-.26.18-.21A49.2,49.2,0,0,1,110.1,46.58l-.25.11-.23-.14,3.23-5.27.3-1.67L116,33.2l-5.59,1.22-.71-3.63.26-.05.27-.06.61,3.08,6.1-1.33-3.26,7.34-.31,1.71-3.56,5.8-.21-.48A48.5,48.5,0,0,0,99.08,32.85l-.33-.33,5.63-1.88,2.28-.14,3.57-.06,0,.23Z"/><path class="cls-1" d="M101.81,31.81l3.26,1.33,1.17,2,5.39.9-.09.54-5.64-.95-1.2-2.06-3.1-1.26Z"/><path class="cls-1" d="M111.71,39l.38,4-.55.06-.38-4"/><path class="cls-2" d="M67,13a2.6,2.6,0,0,0,.8-1.71l.55,0a3.3,3.3,0,0,1-.6,1.64,1.52,1.52,0,0,0,.83-.46,2.47,2.47,0,0,0,.57-1.65M67,13a4.66,4.66,0,0,1-1.91-.73l.75-1L65.41,11l-.76,1a9.45,9.45,0,0,1-1.83-1.77l-.43.34a8.22,8.22,0,0,0,4,2.91,3.59,3.59,0,0,1-1.68.4,4.57,4.57,0,0,1-2.46-.76l.74-1-.44-.32-.74,1A4.54,4.54,0,0,1,60.55,11l-.51.21a5.16,5.16,0,0,0,4.68,3.2h0a4,4,0,0,0,2.48-.82h.12A2.2,2.2,0,0,0,69,12.93a3.07,3.07,0,0,0,.72-2l-.55,0h0M68,13.72H68a5.36,5.36,0,0,0,1.54.22h.15a5.36,5.36,0,0,1,.7.06h.06a3.63,3.63,0,0,0,.44.05H71a.69.69,0,0,1,.32,0,.51.51,0,0,1,.21.1l.11.08a1,1,0,0,1,.2.28.93.93,0,0,1,.07.33h0a1.87,1.87,0,0,1-.07.4,1,1,0,0,1-.51.68,1.6,1.6,0,0,1-.79.15h0a9.27,9.27,0,0,1-1.12.49c-.09.34-.14.49-.24.79s-.15.46-.28.89h0a2.43,2.43,0,0,1-1,1.43,3.08,3.08,0,0,1-.89.36l.5,2.16,2.69,2.38h0L68.88,25l-.11-.19a.64.64,0,0,0-.29-.25l-.17-.06v-.18a1.14,1.14,0,0,0-.22-.52,4.78,4.78,0,0,0-.53-.59c-.2-.18-.39-.34-.54-.45l-.17-.13,0,0h0l-1.51-1.69-.35.09-.18,1.94L65.14,26l-1,.28-.09-.23h0v0A.25.25,0,0,0,64,26l0,0h-.29l0-.31c0-.29.13-.92.22-1.49,0-.28.09-.55.12-.74l.05-.3a5.73,5.73,0,0,0-.29-1.79,6.07,6.07,0,0,1-3.34,1.41,2.67,2.67,0,0,1-.56-.06l-.84,1.76.13.08c.21.14.49.32.78.54a8.18,8.18,0,0,1,.83.73,2.13,2.13,0,0,1,.52.85l.09.41-1.19-.22,0-.25h0v-.11H60.1L60,26.26a1.27,1.27,0,0,0-.29-.38,6.39,6.39,0,0,0-.53-.49l-.5-.4-.17-.12,0,0h0l-.15-.1,0-.17a2.43,2.43,0,0,0,.05-.6h0c0-.16,0-.31,0-.47l-.38.45-.42.5-.06.08a19.38,19.38,0,0,0,1.66,2.81l.23.32L58.17,28l-.1-.21a.43.43,0,0,0-.25-.23l-.15-.05,0-.15a14.26,14.26,0,0,0-1-3.12l-.06-.15.1-.13a1.48,1.48,0,0,0,.31-.86,2.5,2.5,0,0,0-.76-1.47l-.07-.09a6.67,6.67,0,0,1-.52-.67,1.89,1.89,0,0,1-.26-.6.8.8,0,0,1-.38-.1.41.41,0,0,1-.15-.17.39.39,0,0,1,0-.2.28.28,0,0,1,0-.09l0-.14h0a.78.78,0,0,1,0-.14.18.18,0,0,1,0-.11l.05-.08.09-.07a.56.56,0,0,1,.16-.07L55.6,19l.07,0,.26-.07.09,0a2.51,2.51,0,0,1,1.09-1,3.64,3.64,0,0,1,.78-.17l.73-.08.31,0h0l0,0h0a9.71,9.71,0,0,0,2.42-.81,10.11,10.11,0,0,0,1.37-.85.57.57,0,0,1,.13-.08.77.77,0,0,1,.34-.08h.07a7.88,7.88,0,0,0,1,.19,3.51,3.51,0,0,0,1.8-.68,1.86,1.86,0,0,1,0-.33h0a.79.79,0,0,1,.18-.53,1,1,0,0,1,.4-.29,3,3,0,0,1,.39-.14h0a2.49,2.49,0,0,0,.36-.13,1.27,1.27,0,0,1,.46-.13Zm-8.83,4.41v0l-.46.05-.71.08a2.82,2.82,0,0,0-.65.14c-.3.11-.48.3-.88.83h0l0,0-.06,0-.07,0-.16.06-.3.08h0l-.31.09s0,.06,0,.08h0v0h.52V20a1,1,0,0,0,.22.58,5.64,5.64,0,0,0,.47.62l.07.09a3,3,0,0,1,.89,1.82h0a2.06,2.06,0,0,1-.11.61l.12-.14a10.9,10.9,0,0,1,.85-1l.42-.38,0,.57,0,.33c0,.06,0,.11,0,.17v.1L59.64,22l.23.08a1.87,1.87,0,0,0,.62.1h0a5.92,5.92,0,0,0,3.3-1.52l.29-.23.13.34.12.31,0-.5,1-.28.12.13h0l1.2,1.33-.47-2,.25-.07.2-.06a2.74,2.74,0,0,0,.8-.32,1.87,1.87,0,0,0,.8-1.13c.13-.39.21-.64.28-.83a9.72,9.72,0,0,0,.27-1l0-.15.15-.05a7.12,7.12,0,0,0,1.24-.53l.06,0h.14a1.12,1.12,0,0,0,.53-.09.56.56,0,0,0,.24-.35h0a.67.67,0,0,0,0-.24.27.27,0,0,0-.09-.21l0,0-.06,0a.25.25,0,0,0-.12,0h-.09a3.49,3.49,0,0,1-.51-.06h-.07a4.82,4.82,0,0,0-.62-.05h-.15a6.13,6.13,0,0,1-1.65-.22.76.76,0,0,0-.2.06h0a3.05,3.05,0,0,1-.45.16h0l-.35.12a.55.55,0,0,0-.19.13.28.28,0,0,0-.06.19,1.37,1.37,0,0,0,.07.34l.07.18-.16.12a3.79,3.79,0,0,1-.76.49,4.12,4.12,0,0,1-1.54.43h0a7.21,7.21,0,0,1-1.05-.2l-.06,0,0,0h0a9.71,9.71,0,0,1-1.47.91A9.89,9.89,0,0,1,59.13,18.13Zm5.4,7.47-.12-.85-.11.73a.7.7,0,0,1,.15.15ZM59,24h0a4.33,4.33,0,0,0,0-.53ZM58,26.55c0,.19.09.39.13.58a1,1,0,0,1,.27.23l.1,0C58.36,27.08,58.19,26.82,58,26.55ZM58.7,24h0ZM59,24Z"/></g></mask><linearGradient id="Безымянный_градиент" y1="117.99" x2="151.43" y2="117.99" gradientTransform="matrix(1, 0, 0, -1, 0, 166)" gradientUnits="userSpaceOnUse"><stop offset="0.03" stop-color="#4279ff"/><stop offset="0.13" stop-color="#ff56e2"/><stop offset="0.25" stop-color="#ff6cce"/><stop offset="0.38" stop-color="#f3ba83"/><stop offset="0.49" stop-color="#e8e092"/><stop offset="0.63" stop-color="#71f3b0"/><stop offset="0.75" stop-color="#01e2de"/><stop offset="0.88" stop-color="#01c8e7"/><stop offset="0.97" stop-color="#a693ff"/></linearGradient></defs><title>Ресурс 1</title><g id="Слой_2" data-name="Слой 2"><g id="Слой_1-2" data-name="Слой 1"><g class="cls-3"><rect class="cls-4" width="151.43" height="96.01"/></g><path class="cls-5" d="M17.06,111.43V117h-.71v-2.52h-3V117h-.71v-5.54h.71v2.42H16.4v-2.42ZM20.68,117a2,2,0,0,1-1-.22,2.3,2.3,0,0,1-.82-.66,4.28,4.28,0,0,1-.55-.87,2.59,2.59,0,0,1,0-2.09,2.72,2.72,0,0,1,1.37-1.48,1.75,1.75,0,0,1,1-.27,2.06,2.06,0,0,1,1.05.22,2.39,2.39,0,0,1,.82.65,5.22,5.22,0,0,1,.55.88,3.19,3.19,0,0,1,.16,1,2.18,2.18,0,0,1-.22,1,2.28,2.28,0,0,1-.55.87,2.21,2.21,0,0,1-.82.61A1.58,1.58,0,0,1,20.68,117Zm-1.92-2.8a4.72,4.72,0,0,0,.11.83,2.87,2.87,0,0,0,.39.71,1.65,1.65,0,0,0,.6.49,1.74,1.74,0,0,0,.77.17,1.77,1.77,0,0,0,.77-.17,1.65,1.65,0,0,0,.6-.49,2.55,2.55,0,0,0,.38-.71,2,2,0,0,0,.11-.77,3.85,3.85,0,0,0-.11-.82,2.47,2.47,0,0,0-.38-.72,1.65,1.65,0,0,0-.6-.49,1.77,1.77,0,0,0-.77-.17,1.74,1.74,0,0,0-.77.17,1.65,1.65,0,0,0-.6.49,2.76,2.76,0,0,0-.39.72A3.47,3.47,0,0,0,18.76,114.17Zm9.61,1.38a2.63,2.63,0,0,1-.11.6,3.36,3.36,0,0,1-.33.44,2,2,0,0,1-.5.27,2.11,2.11,0,0,1-.6.11H24.2v-5.54h2.74a1.79,1.79,0,0,1,.55.11,1.21,1.21,0,0,1,.38.33,1.23,1.23,0,0,1,.28.44,1.73,1.73,0,0,1,.11.49,1.29,1.29,0,0,1-.22.77,1.92,1.92,0,0,1-.61.55,1.86,1.86,0,0,1,.77.49A3.86,3.86,0,0,1,28.37,115.55ZM24.8,112v1.87h1.75a.76.76,0,0,0,.33-.05.62.62,0,0,0,.28-.22c.05-.11.11-.17.16-.28a1.18,1.18,0,0,0,.11-.38.83.83,0,0,0-.22-.66.49.49,0,0,0-.27-.22.65.65,0,0,0-.33-.06Zm2.85,3.35a1.13,1.13,0,0,0,0-.38l-.17-.33a.49.49,0,0,0-.27-.22.65.65,0,0,0-.33-.06h-2v1.92h1.92a1,1,0,0,0,.39,0,.54.54,0,0,0,.27-.22c0-.05.11-.16.11-.28A.71.71,0,0,0,27.65,115.38ZM31.71,117a2,2,0,0,1-1-.22,2.3,2.3,0,0,1-.82-.66,4.28,4.28,0,0,1-.55-.87,3.21,3.21,0,0,1-.17-1,2.29,2.29,0,0,1,.22-1,2.4,2.4,0,0,1,.55-.88,2.49,2.49,0,0,1,.82-.6,1.76,1.76,0,0,1,1.05-.27,2,2,0,0,1,1,.22,2.39,2.39,0,0,1,.82.65,4.65,4.65,0,0,1,.55.88,3.19,3.19,0,0,1,.17,1,2.3,2.3,0,0,1-.22,1,2.28,2.28,0,0,1-.55.87,2.33,2.33,0,0,1-.83.61A1.63,1.63,0,0,1,31.71,117Zm-1.86-2.8A3.94,3.94,0,0,0,30,115a3.21,3.21,0,0,0,.38.71,1.65,1.65,0,0,0,.6.49,1.77,1.77,0,0,0,.77.17,1.74,1.74,0,0,0,.77-.17,1.65,1.65,0,0,0,.6-.49,2.87,2.87,0,0,0,.39-.71,2,2,0,0,0,.11-.77,4.61,4.61,0,0,0-.11-.82,2.76,2.76,0,0,0-.39-.72,1.5,1.5,0,0,0-.55-.49,1.7,1.7,0,0,0-.76-.17,1.74,1.74,0,0,0-.77.17,1.44,1.44,0,0,0-.66.49,3.07,3.07,0,0,0-.38.72A3,3,0,0,0,29.85,114.17ZM38.52,112H36.05v4.89h-.72v-5.49h3.19Zm2.9,4.94a2,2,0,0,1-1-.22,2.3,2.3,0,0,1-.82-.66,4.28,4.28,0,0,1-.55-.87,3.21,3.21,0,0,1-.17-1,2.29,2.29,0,0,1,.22-1,2.4,2.4,0,0,1,.55-.88,2.43,2.43,0,0,1,.83-.6,1.47,1.47,0,0,1,1-.27,2.06,2.06,0,0,1,1,.22,2.49,2.49,0,0,1,.82.65,5.22,5.22,0,0,1,.55.88,3.19,3.19,0,0,1,.16,1,2.18,2.18,0,0,1-.22,1,2.81,2.81,0,0,1-1.37,1.48A1.58,1.58,0,0,1,41.42,117Zm-1.92-2.8a4.72,4.72,0,0,0,.11.83,2.87,2.87,0,0,0,.39.71,1.65,1.65,0,0,0,.6.49,1.74,1.74,0,0,0,.77.17,1.77,1.77,0,0,0,.77-.17,1.65,1.65,0,0,0,.6-.49,3.21,3.21,0,0,0,.38-.71,2,2,0,0,0,.11-.77,3.85,3.85,0,0,0-.11-.82,3.07,3.07,0,0,0-.38-.72,1.65,1.65,0,0,0-.6-.49,1.77,1.77,0,0,0-.77-.17,1.74,1.74,0,0,0-.77.17,1.65,1.65,0,0,0-.6.49,2.76,2.76,0,0,0-.39.72A3.47,3.47,0,0,0,39.5,114.17Zm4.72,2.14h.06a.76.76,0,0,0,.33,0l.27-.17a.83.83,0,0,0,.22-.38c0-.16.16-.38.22-.6s.11-.55.16-.94a7,7,0,0,0,.11-1.26l.11-1.53h2.91v4.93h.88v2.09h-.61V117H44.82v1.43h-.6Zm3.73,0V112H46.36l0,.94a10.39,10.39,0,0,1-.33,2.19,2.85,2.85,0,0,1-.55,1.15Zm6.86-4.88V117H54.1v-2.52H51V117h-.71v-5.54H51v2.42H54.1v-2.42ZM59,117v-2.19H57.77L56.51,117h-.82l1.37-2.25a2.25,2.25,0,0,1-.44-.22.8.8,0,0,1-.33-.38,1.65,1.65,0,0,1-.22-.44,1.08,1.08,0,0,1-.11-.55,1.4,1.4,0,0,1,.11-.66,4.26,4.26,0,0,1,.33-.54,2,2,0,0,1,.55-.39,1.46,1.46,0,0,1,.66-.16h2.14v5.54H59ZM59,112H57.66a1.09,1.09,0,0,0-.38.11,1,1,0,0,0-.55.55,1.19,1.19,0,0,0,0,.44.9.9,0,0,0,0,.39,1.26,1.26,0,0,0,.22.33.83.83,0,0,0,.27.21,1,1,0,0,0,.39.11H59ZM64,117v-2.19H62.76L61.45,117h-.82L62,114.72a2.25,2.25,0,0,1-.44-.22.71.71,0,0,1-.33-.38,1.65,1.65,0,0,1-.22-.44,1.84,1.84,0,0,1,0-.55,1.78,1.78,0,0,1,.11-.6,3.47,3.47,0,0,1,.32-.55,2.15,2.15,0,0,1,.55-.38,1.47,1.47,0,0,1,.66-.17h2.14V117ZM64,112H62.66a1.15,1.15,0,0,0-.39.11,1,1,0,0,0-.55.55,1.19,1.19,0,0,0,0,.44.9.9,0,0,0,0,.39,1.26,1.26,0,0,0,.22.33.85.85,0,0,0,.28.21.92.92,0,0,0,.38.11H64Zm3.62,2.09a3.11,3.11,0,0,1,.16-1,2.86,2.86,0,0,1,.5-.88,2.31,2.31,0,0,1,1.92-.87,2.27,2.27,0,0,1,1.26.33,2,2,0,0,1,.77.87l-.55.39a2.81,2.81,0,0,0-.28-.44,1.08,1.08,0,0,0-.38-.28c-.16,0-.27-.11-.44-.16a1.09,1.09,0,0,0-.44-.06,1.81,1.81,0,0,0-.82.17,1.65,1.65,0,0,0-.6.49,2.76,2.76,0,0,0-.39.72,4,4,0,0,0-.11.76,2.24,2.24,0,0,0,.17.83,3.21,3.21,0,0,0,.38.71,1.65,1.65,0,0,0,.6.49,1.77,1.77,0,0,0,.77.17,1.09,1.09,0,0,0,.44-.06c.17,0,.28-.11.44-.16a.75.75,0,0,0,.38-.33,1.23,1.23,0,0,0,.28-.44l.6.33a1.86,1.86,0,0,1-.93.93,3.73,3.73,0,0,1-.66.28,3,3,0,0,1-.66.11,2.22,2.22,0,0,1-1-.28,2.3,2.3,0,0,1-.82-.66,3.46,3.46,0,0,1-.55-.93A3.29,3.29,0,0,0,67.65,114.12ZM77.31,112H75.38v4.89h-.71V112H72.75v-.6h4.5v.6Zm2.9,4.94a2,2,0,0,1-1-.22,2.3,2.3,0,0,1-.82-.66,4.28,4.28,0,0,1-.55-.87,3.21,3.21,0,0,1-.17-1,2.29,2.29,0,0,1,.22-1,2.4,2.4,0,0,1,.55-.88,2.49,2.49,0,0,1,.82-.6,2.3,2.3,0,0,1,1-.22,2.13,2.13,0,0,1,1,.22,2.42,2.42,0,0,1,.82.66,4.36,4.36,0,0,1,.55.88,3.19,3.19,0,0,1,.17,1,2.29,2.29,0,0,1-.22,1,2.4,2.4,0,0,1-.55.88,2.3,2.3,0,0,1-.83.6A2.12,2.12,0,0,1,80.21,117Zm-1.92-2.8a4.72,4.72,0,0,0,.11.83,2.87,2.87,0,0,0,.39.71,1.65,1.65,0,0,0,.6.49,1.74,1.74,0,0,0,.77.17,1.77,1.77,0,0,0,.77-.17,1.83,1.83,0,0,0,.6-.49,3.21,3.21,0,0,0,.38-.71,2,2,0,0,0,.11-.77,3.85,3.85,0,0,0-.11-.82,3.07,3.07,0,0,0-.38-.72,1.83,1.83,0,0,0-.6-.49,1.77,1.77,0,0,0-.77-.17,1.74,1.74,0,0,0-.77.17,1.65,1.65,0,0,0-.6.49,2.76,2.76,0,0,0-.39.72A3.47,3.47,0,0,0,78.29,114.17ZM85,113c-.05.71-.16,1.31-.22,1.86a5.93,5.93,0,0,1-.38,1.26,2,2,0,0,1-.55.72,1.19,1.19,0,0,1-.77.22l-.11-.72a.76.76,0,0,0,.33,0l.27-.17a.75.75,0,0,0,.22-.38,4.52,4.52,0,0,0,.22-.6c.06-.22.11-.55.17-.94a8.07,8.07,0,0,0,.11-1.26l.11-1.53h2.91v5.54h-.66V112H85.1Zm4.39,2.91,3.18-4.45h.61V117H92.5v-4.39L89.38,117h-.66v-5.54h.71ZM94.59,117v-5.54h.71v4.88h2.63v-4.88h.72v4.88h.87v2.09h-.6V117Zm7.4-5.54h.61l2.25,5.54h-.77l-.66-1.64h-2.3l-.66,1.64h-.77Zm1.27,3.35-1-2.58-1,2.58Zm4.28,2.19v-5.54h2.3a1.32,1.32,0,0,1,.66.17,2.15,2.15,0,0,1,.55.38,1.52,1.52,0,0,1,.33.55,1.4,1.4,0,0,1,.11.66,3,3,0,0,1-.11.66,1.22,1.22,0,0,1-.33.54,2.84,2.84,0,0,1-.5.39,1.45,1.45,0,0,1-.65.16h-1.65v2h-.71Zm2.3-2.63a.85.85,0,0,0,.38-.11.81.81,0,0,0,.28-.27.93.93,0,0,0,.22-.39,1.3,1.3,0,0,0,0-.44,1.19,1.19,0,0,0,0-.44,1,1,0,0,0-.22-.38,1.06,1.06,0,0,0-.33-.22.92.92,0,0,0-.38-.11h-1.6v2.36Zm4.83,2.63a2,2,0,0,1-1-.22,2.34,2.34,0,0,1-.83-.66,4.76,4.76,0,0,1-.55-.87,3.21,3.21,0,0,1-.16-1,2.16,2.16,0,0,1,.22-1,2.72,2.72,0,0,1,1.37-1.48,2.29,2.29,0,0,1,1-.22,2.1,2.1,0,0,1,1,.22,2.45,2.45,0,0,1,.83.66,4.85,4.85,0,0,1,.55.88,3.19,3.19,0,0,1,.16,1,2.16,2.16,0,0,1-.22,1,2.4,2.4,0,0,1-.55.88,2.27,2.27,0,0,1-.82.6A2.16,2.16,0,0,1,114.67,117Zm-1.92-2.8a3.94,3.94,0,0,0,.11.83,3.21,3.21,0,0,0,.38.71,1.76,1.76,0,0,0,.61.49,1.7,1.7,0,0,0,.76.17,1.74,1.74,0,0,0,.77-.17,1.76,1.76,0,0,0,.61-.49,3.21,3.21,0,0,0,.38-.71,2,2,0,0,0,.11-.77,4.61,4.61,0,0,0-.11-.82,3.07,3.07,0,0,0-.38-.72,1.76,1.76,0,0,0-.61-.49,1.74,1.74,0,0,0-.77-.17,1.7,1.7,0,0,0-.76.17,1.76,1.76,0,0,0-.61.49,3.07,3.07,0,0,0-.38.72A3,3,0,0,0,112.75,114.17Zm5.1,0a3.11,3.11,0,0,1,.16-1,2.86,2.86,0,0,1,.5-.88,2.31,2.31,0,0,1,1.92-.87,2.27,2.27,0,0,1,1.26.33,2,2,0,0,1,.77.87l-.55.39a3.86,3.86,0,0,0-.27-.44,1,1,0,0,0-.39-.28c-.16,0-.27-.11-.44-.16a1.09,1.09,0,0,0-.44-.06,1.81,1.81,0,0,0-.82.17,1.65,1.65,0,0,0-.6.49,2.76,2.76,0,0,0-.39.72,4,4,0,0,0-.11.76,2.24,2.24,0,0,0,.17.83,3.21,3.21,0,0,0,.38.71,1.76,1.76,0,0,0,.61.49,1.7,1.7,0,0,0,.76.17,1.09,1.09,0,0,0,.44-.06c.17,0,.28-.11.44-.16a.73.73,0,0,0,.39-.33,1.37,1.37,0,0,0,.27-.44l.6.33a1.86,1.86,0,0,1-.93.93,3.73,3.73,0,0,1-.66.28,3,3,0,0,1-.66.11,2.22,2.22,0,0,1-1-.28,2.3,2.3,0,0,1-.82-.66,3.46,3.46,0,0,1-.55-.93A3.29,3.29,0,0,0,117.85,114.12Zm5.27,0a3.11,3.11,0,0,1,.16-1,3,3,0,0,1,.49-.88,2.43,2.43,0,0,1,.83-.65,2.38,2.38,0,0,1,1.1-.22,2.27,2.27,0,0,1,1.26.33,2,2,0,0,1,.77.87l-.55.39a2.81,2.81,0,0,0-.28-.44,1.08,1.08,0,0,0-.38-.28c-.17,0-.28-.11-.44-.16a1.14,1.14,0,0,0-.44-.06,1.81,1.81,0,0,0-.82.17,1.76,1.76,0,0,0-.61.49,3.07,3.07,0,0,0-.38.72,3.32,3.32,0,0,0-.11.76,2.22,2.22,0,0,0,.16.83,2.87,2.87,0,0,0,.39.71,1.65,1.65,0,0,0,.6.49,1.77,1.77,0,0,0,.77.17,1.14,1.14,0,0,0,.44-.06c.16,0,.27-.11.44-.16a.75.75,0,0,0,.38-.33,1.23,1.23,0,0,0,.28-.44l.6.33a1.86,1.86,0,0,1-.93.93,3.73,3.73,0,0,1-.66.28,3,3,0,0,1-.66.11,2.59,2.59,0,0,1-1.86-.94,3.46,3.46,0,0,1-.55-.93A7.21,7.21,0,0,0,123.12,114.12Zm6.42,1.76,3.18-4.45h.6V117h-.71v-4.39L129.48,117h-.66v-5.54h.72Zm5.81,0,3.18-4.45h.61V117h-.72v-4.39L135.3,117h-.66v-5.54h.71Z"/><path class="cls-5" d="M52.07,128a3.49,3.49,0,0,1,0-.72,3.86,3.86,0,0,1,.22-.71,2.81,2.81,0,0,1,.49-.66,3.41,3.41,0,0,1,.88-.6,6.73,6.73,0,0,0,.61-.33,6.48,6.48,0,0,0,.6-.33,1.84,1.84,0,0,0,.44-.44.94.94,0,0,0,.16-.55.92.92,0,0,0-.11-.38,1.31,1.31,0,0,0-.27-.33,1.07,1.07,0,0,0-.44-.22,1.78,1.78,0,0,0-.6-.11,1.89,1.89,0,0,0-.61.11c-.16,0-.33.16-.49.22s-.27.16-.33.27l-.22.22L52,122.9l.22-.22a2.8,2.8,0,0,1,.44-.33,2.41,2.41,0,0,1,.65-.28,2.29,2.29,0,0,1,.88-.11,4.7,4.7,0,0,1,.88.11,2.56,2.56,0,0,1,.66.39,1.22,1.22,0,0,1,.38.55,1.17,1.17,0,0,1,.11.6,1.36,1.36,0,0,1-.16.71,3.66,3.66,0,0,1-.44.55,2.27,2.27,0,0,1-.61.39,4.49,4.49,0,0,1-.54.27l-.66.33a4.36,4.36,0,0,0-.55.38,3.28,3.28,0,0,0-.44.5,1.08,1.08,0,0,0-.16.6h3.73V128H52.07Z"/><path class="cls-5" d="M62.88,124.87a3.28,3.28,0,0,1-.22,1.26,2.79,2.79,0,0,1-.55,1,2.34,2.34,0,0,1-.83.66,2.12,2.12,0,0,1-1,.22,2.16,2.16,0,0,1-1-.22,2.3,2.3,0,0,1-.82-.66,2.79,2.79,0,0,1-.55-1,4.61,4.61,0,0,1-.22-1.26,3.1,3.1,0,0,1,.22-1.26,3,3,0,0,1,.55-1,2.54,2.54,0,0,1,.82-.66,2.29,2.29,0,0,1,1-.22,2.23,2.23,0,0,1,1,.22,2.58,2.58,0,0,1,.83.66,3,3,0,0,1,.55,1A5,5,0,0,1,62.88,124.87Zm-.77,0a3.19,3.19,0,0,0-.17-1,2.63,2.63,0,0,0-.38-.77,1.83,1.83,0,0,0-.6-.49,1.77,1.77,0,0,0-.77-.17,1.74,1.74,0,0,0-.77.17,1.65,1.65,0,0,0-.6.49,3.28,3.28,0,0,0-.39.77,3,3,0,0,0-.16,1,3.11,3.11,0,0,0,.16,1,2.42,2.42,0,0,0,.39.77,1.68,1.68,0,0,0,.6.5,1.74,1.74,0,0,0,.77.16,1.77,1.77,0,0,0,.77-.16,1.86,1.86,0,0,0,.6-.5,3.45,3.45,0,0,0,.38-.77A2.1,2.1,0,0,0,62.11,124.87Z"/><path class="cls-5" d="M63.86,128a2.92,2.92,0,0,1,.06-.72,3.22,3.22,0,0,1,.22-.71,2.56,2.56,0,0,1,.49-.66,3.41,3.41,0,0,1,.88-.6,5.39,5.39,0,0,0,.6-.33,6.73,6.73,0,0,0,.61-.33,1.8,1.8,0,0,0,.43-.44.94.94,0,0,0,.17-.55,1.09,1.09,0,0,0-.11-.38,1.64,1.64,0,0,0-.28-.33,1,1,0,0,0-.43-.22,1.89,1.89,0,0,0-.61-.11,1.78,1.78,0,0,0-.6.11c-.16,0-.33.16-.5.22s-.27.16-.32.27l-.22.22-.5-.49.22-.22a3.36,3.36,0,0,1,.44-.33,2.62,2.62,0,0,1,.66-.28A2.27,2.27,0,0,1,66,122a4.49,4.49,0,0,1,.87.11,2.4,2.4,0,0,1,.66.39,1.24,1.24,0,0,1,.39.55,1.17,1.17,0,0,1,.11.6,1.36,1.36,0,0,1-.17.71,3.12,3.12,0,0,1-.44.55,2.07,2.07,0,0,1-.6.39,3.91,3.91,0,0,1-.55.27l-.66.33a5.24,5.24,0,0,0-.55.38,3.83,3.83,0,0,0-.43.5,1.08,1.08,0,0,0-.17.6h3.73V128H63.86Z"/><path class="cls-5" d="M73.08,127.29V128H69.57v-.66h1.48v-4.45c0,.11-.16.17-.27.28a3.39,3.39,0,0,1-.44.27,1.82,1.82,0,0,1-.5.22,1.48,1.48,0,0,1-.44.11V123a2.66,2.66,0,0,0,.55-.11c.17-.11.39-.22.55-.33a2.8,2.8,0,0,0,.44-.33l.22-.22h.71v5.27Z"/><path class="cls-5" d="M73.85,125.42v-.66h3v.66Z"/><path class="cls-5" d="M78,128a2.92,2.92,0,0,1,.06-.72,3.22,3.22,0,0,1,.22-.71,1.89,1.89,0,0,1,.55-.66,3.34,3.34,0,0,1,.87-.6,6.73,6.73,0,0,0,.61-.33c.16-.11.44-.22.6-.33a1.67,1.67,0,0,0,.44-.44.94.94,0,0,0,.16-.55.92.92,0,0,0-.11-.38,1.31,1.31,0,0,0-.27-.33,1,1,0,0,0-.44-.22,1.78,1.78,0,0,0-.6-.11,1.89,1.89,0,0,0-.61.11c-.16,0-.33.16-.49.22s-.27.16-.33.27l-.22.22-.49-.49.22-.22a2.8,2.8,0,0,1,.44-.33,2.55,2.55,0,0,1,.65-.28,2.29,2.29,0,0,1,.88-.11,4.6,4.6,0,0,1,.88.11,2.56,2.56,0,0,1,.66.39A1.22,1.22,0,0,1,82,123a2.11,2.11,0,0,1,.11.6,1.36,1.36,0,0,1-.16.71,3.66,3.66,0,0,1-.44.55,2.38,2.38,0,0,1-.6.39,4.52,4.52,0,0,1-.55.27l-.66.33a4.36,4.36,0,0,0-.55.38,3.94,3.94,0,0,0-.44.5,1.08,1.08,0,0,0-.16.6H82.3V128H78Z"/><path class="cls-5" d="M88.72,124.87a3.28,3.28,0,0,1-.22,1.26,2.79,2.79,0,0,1-.55,1,2.3,2.3,0,0,1-.82.66,2.59,2.59,0,0,1-2.09,0,2.3,2.3,0,0,1-.82-.66,2.79,2.79,0,0,1-.55-1,4.61,4.61,0,0,1-.22-1.26,3.1,3.1,0,0,1,.22-1.26,3,3,0,0,1,.55-1A2.54,2.54,0,0,1,85,122a2.59,2.59,0,0,1,2.09,0,2.54,2.54,0,0,1,.82.66,3,3,0,0,1,.55,1A3.28,3.28,0,0,1,88.72,124.87Zm-.72,0a3.19,3.19,0,0,0-.16-1,2.63,2.63,0,0,0-.38-.77,1.76,1.76,0,0,0-.61-.49,1.74,1.74,0,0,0-.77-.17,1.7,1.7,0,0,0-.76.17,1.76,1.76,0,0,0-.61.49,3.68,3.68,0,0,0-.38.77,3.19,3.19,0,0,0-.17,1,3.11,3.11,0,0,0,.17,1,2.63,2.63,0,0,0,.38.77,1.8,1.8,0,0,0,.61.5,1.7,1.7,0,0,0,.76.16,1.74,1.74,0,0,0,.77-.16,1.8,1.8,0,0,0,.61-.5,3.45,3.45,0,0,0,.38-.77A2.92,2.92,0,0,0,88,124.87Z"/><path class="cls-5" d="M89.76,128a3.49,3.49,0,0,1,0-.72,3.86,3.86,0,0,1,.22-.71,2,2,0,0,1,.55-.66,3.41,3.41,0,0,1,.88-.6,5.39,5.39,0,0,0,.6-.33c.17-.11.44-.22.61-.33a1.84,1.84,0,0,0,.44-.44.94.94,0,0,0,.16-.55.92.92,0,0,0-.11-.38,1.31,1.31,0,0,0-.27-.33,1.07,1.07,0,0,0-.44-.22,1.89,1.89,0,0,0-.61-.11,1.78,1.78,0,0,0-.6.11c-.16,0-.33.16-.49.22s-.28.16-.33.27l-.22.22-.5-.49.22-.22a3.36,3.36,0,0,1,.44-.33,2.62,2.62,0,0,1,.66-.28,2.27,2.27,0,0,1,.88-.11,4.7,4.7,0,0,1,.88.11,2.34,2.34,0,0,1,.65.39,1.24,1.24,0,0,1,.39.55,2.53,2.53,0,0,1,.11.6,1.36,1.36,0,0,1-.17.71,3.12,3.12,0,0,1-.44.55,2.07,2.07,0,0,1-.6.39,3.91,3.91,0,0,1-.55.27l-.66.33a4.2,4.2,0,0,0-.54.38,3.28,3.28,0,0,0-.44.5,1.08,1.08,0,0,0-.17.6h3.73V128H89.76Z"/><path class="cls-5" d="M95.19,128a2.92,2.92,0,0,1,.06-.72,3.19,3.19,0,0,1,.21-.71,2,2,0,0,1,.55-.66,3.41,3.41,0,0,1,.88-.6,5.39,5.39,0,0,0,.6-.33c.17-.11.44-.22.61-.33a1.84,1.84,0,0,0,.44-.44.94.94,0,0,0,.16-.55.92.92,0,0,0-.11-.38,1.31,1.31,0,0,0-.27-.33,1.07,1.07,0,0,0-.44-.22,1.72,1.72,0,0,0-1.21,0c-.16,0-.33.16-.49.22s-.28.16-.33.27l-.22.22-.49-.49.21-.22a3.36,3.36,0,0,1,.44-.33,2.62,2.62,0,0,1,.66-.28,2.29,2.29,0,0,1,.88-.11,4.7,4.7,0,0,1,.88.11,2.56,2.56,0,0,1,.66.39,1.22,1.22,0,0,1,.38.55,2.11,2.11,0,0,1,.11.6,1.36,1.36,0,0,1-.16.71,3.66,3.66,0,0,1-.44.55,2.27,2.27,0,0,1-.61.39,3.91,3.91,0,0,1-.55.27l-.65.33a4.36,4.36,0,0,0-.55.38,3.28,3.28,0,0,0-.44.5,1.08,1.08,0,0,0-.17.6h3.73V128H95.19Z"/></g></g></svg>