<svg width="23" height="14" viewBox="0 0 23 14" fill="none" xmlns="http://www.w3.org/2000/svg">
<path fill-rule="evenodd" clip-rule="evenodd" d="M11.3577 13.4559H12.692C12.692 13.4559 13.0951 13.4116 13.3008 13.1898C13.4902 12.9862 13.4842 12.6037 13.4842 12.6037C13.4842 12.6037 13.4581 10.8134 14.289 10.5497C15.1082 10.29 16.16 12.2801 17.2749 13.0453C18.118 13.6244 18.7586 13.4974 18.7586 13.4974L21.7396 13.4559C21.7396 13.4559 23.2991 13.3598 22.5596 12.1337C22.499 12.0334 22.129 11.2267 20.3432 9.56908C18.474 7.83417 18.7243 8.11478 20.9759 5.11377C22.3472 3.28613 22.8954 2.17033 22.7242 1.69243C22.5608 1.23727 21.5523 1.35757 21.5523 1.35757L18.1958 1.37848C18.1958 1.37848 17.947 1.34454 17.7625 1.45485C17.5822 1.56303 17.4661 1.81517 17.4661 1.81517C17.4661 1.81517 16.9349 3.22946 16.2264 4.43223C14.7318 6.9702 14.1342 7.10414 13.8899 6.94656C13.3217 6.57927 13.4636 5.47105 13.4636 4.68375C13.4636 2.22427 13.8366 1.19878 12.7372 0.933316C12.3723 0.845131 12.1038 0.786947 11.1707 0.777553C9.97312 0.765128 8.95945 0.781189 8.38549 1.06241C8.00366 1.24939 7.7091 1.66607 7.8885 1.69001C8.11033 1.71971 8.61277 1.82547 8.87914 2.18821C9.2231 2.6561 9.21097 3.70705 9.21097 3.70705C9.21097 3.70705 9.40856 6.6023 8.74944 6.96201C8.297 7.20869 7.67637 6.70503 6.3439 4.40253C5.66115 3.22309 5.14568 1.91941 5.14568 1.91941C5.14568 1.91941 5.04628 1.67577 4.869 1.54546C4.65384 1.38757 4.35323 1.33727 4.35323 1.33727L1.16372 1.35818C1.16372 1.35818 0.684915 1.37151 0.509151 1.5797C0.352782 1.76486 0.496726 2.1479 0.496726 2.1479C0.496726 2.1479 2.99378 7.98993 5.82116 10.934C8.41367 13.6332 11.3577 13.4559 11.3577 13.4559Z" fill="white"/>
</svg>
