<svg width="19" height="18" viewBox="0 0 19 18" fill="none" xmlns="http://www.w3.org/2000/svg">
<path d="M16.9186 8.42379C16.8042 8.42305 16.6929 8.3865 16.6002 8.31924L9.23301 3.04758L1.86583 8.31924C1.74764 8.38941 1.6075 8.41261 1.47307 8.38426C1.33865 8.35592 1.21971 8.27809 1.13974 8.16613C1.05977 8.05418 1.02457 7.91625 1.0411 7.77955C1.05763 7.64286 1.12468 7.51735 1.22902 7.42779L8.9146 1.92501C9.00758 1.85866 9.11887 1.823 9.23301 1.823C9.34714 1.823 9.45844 1.85866 9.55141 1.92501L17.237 7.42779C17.3307 7.4958 17.4006 7.59177 17.4367 7.70197C17.4728 7.81218 17.4732 7.93099 17.4379 8.04145C17.4025 8.1519 17.3333 8.24835 17.2401 8.31701C17.1468 8.38568 17.0343 8.42305 16.9186 8.42379Z" fill="white"/>
<path d="M3.19413 5.12222C3.04856 5.12222 2.90896 5.06425 2.80602 4.96105C2.70309 4.85785 2.64526 4.71789 2.64526 4.57195V2.37083C2.64526 2.22489 2.70309 2.08493 2.80602 1.98173C2.90896 1.87853 3.04856 1.82056 3.19413 1.82056H5.38961C5.53518 1.82056 5.67479 1.87853 5.77772 1.98173C5.88066 2.08493 5.93848 2.22489 5.93848 2.37083C5.93848 2.51678 5.88066 2.65674 5.77772 2.75994C5.67479 2.86314 5.53518 2.92111 5.38961 2.92111H3.743V4.57195C3.743 4.71789 3.68518 4.85785 3.58224 4.96105C3.47931 5.06425 3.3397 5.12222 3.19413 5.12222Z" fill="white"/>
<path d="M14.1736 16.1277H11.4288C11.2832 16.1277 11.1436 16.0697 11.0406 15.9665C10.9377 15.8634 10.8798 15.7234 10.8798 15.5774V11.7255H7.58599V15.5774C7.58599 15.7234 7.52816 15.8634 7.4252 15.9665C7.32225 16.0697 7.18262 16.1277 7.03702 16.1277H4.29217C3.85539 16.1277 3.43649 15.9538 3.12763 15.6442C2.81878 15.3346 2.64526 14.9147 2.64526 14.4769V8.97411C2.64526 8.82816 2.7031 8.6882 2.80605 8.585C2.90901 8.4818 3.04864 8.42383 3.19423 8.42383C3.33983 8.42383 3.47946 8.4818 3.58241 8.585C3.68537 8.6882 3.7432 8.82816 3.7432 8.97411V14.4769C3.7432 14.6228 3.80104 14.7628 3.90399 14.866C4.00695 14.9692 4.14658 15.0272 4.29217 15.0272H6.48805V11.1752C6.48805 11.0293 6.54589 10.8893 6.64884 10.7861C6.7518 10.6829 6.89143 10.6249 7.03702 10.6249H11.4288C11.5744 10.6249 11.714 10.6829 11.817 10.7861C11.9199 10.8893 11.9778 11.0293 11.9778 11.1752V15.0272H14.1736C14.3192 15.0272 14.4589 14.9692 14.5618 14.866C14.6648 14.7628 14.7226 14.6228 14.7226 14.4769V8.97411C14.7226 8.82816 14.7804 8.6882 14.8834 8.585C14.9863 8.4818 15.126 8.42383 15.2716 8.42383C15.4172 8.42383 15.5568 8.4818 15.6598 8.585C15.7627 8.6882 15.8205 8.82816 15.8205 8.97411V14.4769C15.8205 14.9147 15.647 15.3346 15.3382 15.6442C15.0293 15.9538 14.6104 16.1277 14.1736 16.1277Z" fill="white"/>
</svg>
