<svg width="21" height="20" viewBox="0 0 21 20" fill="none" xmlns="http://www.w3.org/2000/svg">
<g clip-path="url(#clip0)">
<path d="M18.2177 18.25H2.83523C1.31273 18.25 0.0527344 17.05 0.0527344 15.6V4.9C0.0527344 3.45 1.31273 2.25 2.83523 2.25H18.2177C19.7402 2.25 21.0002 3.45 21.0002 4.9V15.55C21.0002 17.05 19.7402 18.25 18.2177 18.25ZM2.83523 3.25C1.83773 3.25 1.05023 4 1.05023 4.9V15.55C1.05023 16.45 1.83773 17.2 2.78273 17.2H18.1652C19.1102 17.2 19.8977 16.45 19.8977 15.55V4.9C19.8977 4 19.1102 3.25 18.1652 3.25H2.83523Z" fill="#2443BE"/>
<path d="M10.5003 11.95C9.60779 11.95 8.76779 11.55 8.13779 10.9L3.15029 5.2C2.94029 5 2.99279 4.7 3.20279 4.5C3.41279 4.3 3.78029 4.35 3.93779 4.55L8.97779 10.3C9.34529 10.75 9.92279 11 10.5003 11C11.0778 11 11.6553 10.75 12.0228 10.3L17.0103 4.6C17.2203 4.4 17.5353 4.35 17.7453 4.55C17.9553 4.75 18.0078 5.05 17.7978 5.25L12.8103 10.95C12.2853 11.6 11.4453 11.95 10.5003 11.95Z" fill="#2443BE"/>
<path d="M18.6371 15.9C18.4796 15.9 18.3221 15.85 18.2171 15.7L14.5946 11.6C14.3846 11.4 14.4371 11.05 14.6471 10.9C14.8571 10.7 15.2246 10.75 15.3821 10.95L19.0046 15.05C19.2146 15.25 19.1621 15.6 18.9521 15.75C18.8996 15.85 18.7421 15.9 18.6371 15.9Z" fill="#2443BE"/>
<path d="M2.36251 15.8499C2.25751 15.8499 2.10001 15.7999 2.04751 15.7499C1.83751 15.5499 1.78501 15.2499 1.99501 15.05L5.56501 11C5.77501 10.8 6.09001 10.75 6.30001 10.95C6.51001 11.15 6.56251 11.45 6.35251 11.65L2.78251 15.6999C2.67751 15.7999 2.52001 15.8499 2.36251 15.8499Z" fill="#2443BE"/>
</g>
<defs>
<clipPath id="clip0">
<rect width="21" height="20" fill="white"/>
</clipPath>
</defs>
</svg>
