<svg width="39" height="39" viewBox="0 0 39 39" fill="none" xmlns="http://www.w3.org/2000/svg">
<path d="M30.4497 26.653C30.7284 27.1246 30.8687 27.6745 30.8687 28.3048C30.8687 29.2718 30.5806 30.0761 30.0048 30.7213C29.4282 31.3665 28.598 31.7473 27.5098 31.8613V33.5156H26.1245V31.8685C24.3134 31.6825 23.1922 30.6279 22.7589 28.7095L24.9008 28.1505C25.0985 29.3574 25.7557 29.9617 26.8717 29.9617C27.3931 29.9617 27.7788 29.8334 28.0241 29.5735C28.2695 29.3146 28.3932 29.0047 28.3932 28.6382C28.3932 28.2593 28.2695 27.9716 28.0241 27.7788C27.7788 27.5837 27.2315 27.3366 26.384 27.0365C25.6225 26.7724 25.0272 26.5124 24.5985 26.251C24.1704 25.9937 23.8227 25.6342 23.5563 25.1699C23.2869 24.7035 23.1538 24.1608 23.1538 23.544C23.1538 22.7345 23.3942 22.0042 23.8702 21.3563C24.3489 20.7092 25.0984 20.3141 26.1244 20.1691V18.8908H27.5097V20.1691C29.0572 20.3548 30.0617 21.2307 30.519 22.7968L28.607 23.5796C28.2359 22.5064 27.662 21.9685 26.8813 21.9685C26.4909 21.9685 26.1768 22.0873 25.9409 22.3279C25.7031 22.5683 25.5842 22.8587 25.5842 23.2015C25.5842 23.5492 25.6983 23.8156 25.9267 24.0036C26.1556 24.1893 26.6432 24.4204 27.3931 24.6938C28.2146 24.9939 28.8621 25.2794 29.3283 25.5461C29.7973 25.8131 30.1687 26.1841 30.4497 26.653ZM39 26.2029C39 32.9349 33.5445 38.3908 26.8128 38.3908C20.0808 38.3908 14.6251 32.9349 14.6251 26.2029C14.6251 19.4714 20.0808 14.0155 26.8128 14.0155C33.5445 14.0155 39 19.4714 39 26.2029ZM36.5628 26.2029C36.5628 20.8258 32.1899 16.4531 26.8128 16.4531C21.4358 16.4531 17.0627 20.8258 17.0627 26.2029C17.0627 31.5803 21.4357 35.9533 26.8128 35.9533C32.1899 35.9533 36.5628 31.5803 36.5628 26.2029ZM19.5 4.26558H34.1251C34.7988 4.26558 35.3436 3.85598 35.3436 3.35137V1.52319C35.3436 1.01866 34.7988 0.609375 34.1251 0.609375H19.5C18.8263 0.609375 18.2812 1.01866 18.2812 1.52319V3.35137C18.2813 3.85598 18.8263 4.26558 19.5 4.26558ZM19.5 9.14055H34.1251C34.7988 9.14055 35.3436 8.73111 35.3436 8.2265V6.3984C35.3436 5.89371 34.7988 5.48418 34.1251 5.48418H19.5C18.8263 5.48418 18.2812 5.89363 18.2812 6.3984V8.22658C18.2813 8.73111 18.8263 9.14055 19.5 9.14055ZM1.2186 33.5156H15.5914C14.8631 32.4015 14.2989 31.1707 13.9252 29.8593H1.2186C0.545039 29.8592 0 30.2685 0 30.7738V32.6014C0 33.106 0.545039 33.5156 1.2186 33.5156ZM15.8437 34.7344H1.2186C0.545039 34.7344 0 35.1436 0 35.6482V37.4766C0 37.9811 0.545039 38.3908 1.2186 38.3908H15.8437C16.5174 38.3908 17.0627 37.9811 17.0627 37.4766V35.6482C17.0627 35.1436 16.5175 34.7344 15.8437 34.7344ZM1.2186 28.6408H13.6396C13.4921 27.8482 13.4065 27.0364 13.4065 26.2029C13.4065 25.7914 13.4302 25.3866 13.4683 24.9845H1.2186C0.545039 24.9845 0 25.3937 0 25.8987V27.7262C0 28.2316 0.545039 28.6408 1.2186 28.6408ZM19.5 14.0155H21.2613C22.9539 13.2396 24.8295 12.7968 26.8127 12.7968C28.7926 12.7968 30.6713 13.2396 32.3636 14.0155H34.1251C34.7988 14.0155 35.3436 13.6061 35.3436 13.1016V11.2734C35.3436 10.7688 34.7988 10.3592 34.1251 10.3592H19.5C18.8263 10.3592 18.2812 10.7688 18.2812 11.2734V13.1016C18.2813 13.6061 18.8263 14.0155 19.5 14.0155ZM1.2186 14.0155H15.8437C16.5174 14.0155 17.0627 13.6061 17.0627 13.1016V11.2734C17.0627 10.7688 16.5174 10.3592 15.8437 10.3592H1.2186C0.545039 10.3592 0 10.7688 0 11.2734V13.1016C0 13.6061 0.545039 14.0155 1.2186 14.0155ZM1.2186 23.7657H13.6396C13.8776 22.4707 14.3038 21.2448 14.8872 20.1093H1.2186C0.545039 20.1093 0 20.5185 0 21.0231V22.8519C0 23.3564 0.545039 23.7657 1.2186 23.7657ZM1.2186 18.8907H15.5914C16.0247 18.2242 16.5198 17.6053 17.0627 17.0291V16.1483C17.0627 15.6438 16.5176 15.2345 15.8441 15.2345H1.2186C0.545039 15.2345 0 15.6437 0 16.1483V17.9765C0 18.4811 0.545039 18.8907 1.2186 18.8907Z" fill="#2443BE"/>
</svg>
