<svg width="29" height="29" viewBox="0 0 29 29" fill="none" xmlns="http://www.w3.org/2000/svg">
<path d="M9.0625 14.5H5.4375V10.875H9.0625V14.5ZM16.3125 10.875H12.6875V14.5H16.3125V10.875ZM23.5625 10.875H19.9375V14.5H23.5625V10.875ZM9.0625 16.3125H5.4375V19.9375H9.0625V16.3125ZM16.3125 16.3125H12.6875V19.9375H16.3125V16.3125ZM23.5625 16.3125H19.9375V19.9375H23.5625V16.3125ZM9.0625 21.75H5.4375V25.375H9.0625V21.75ZM16.3125 21.75H12.6875V25.375H16.3125V21.75ZM7.25 5.4375C8.25095 5.4375 9.0625 4.6268 9.0625 3.625V1.8125C9.0625 0.810641 8.25095 0 7.25 0C6.24905 0 5.4375 0.810697 5.4375 1.8125V3.625C5.4375 4.62686 6.24905 5.4375 7.25 5.4375ZM29 3.625V29H0V3.625H4.53125C4.53125 5.12422 5.75078 6.34375 7.25 6.34375C8.74922 6.34375 9.96875 5.12422 9.96875 3.625H19.0312C19.0312 5.12422 20.2508 6.34375 21.75 6.34375C23.2492 6.34375 24.4688 5.12422 24.4688 3.625H29ZM27.1875 9.0625H1.8125V27.1875H27.1875V9.0625ZM21.75 5.4375C22.7519 5.4375 23.5625 4.6268 23.5625 3.625V1.8125C23.5625 0.810641 22.7519 0 21.75 0C20.7481 0 19.9375 0.810697 19.9375 1.8125V3.625C19.9375 4.62686 20.7481 5.4375 21.75 5.4375Z" fill="#2443BE"/>
</svg>
