<svg width="29" height="29" viewBox="0 0 29 29" fill="none" xmlns="http://www.w3.org/2000/svg">
<path d="M14.5 0C6.49172 0 0 6.49205 0 14.5C0 22.5083 6.49172 29 14.5 29C22.5083 29 29 22.5083 29 14.5C29 6.49205 22.5083 0 14.5 0ZM14.5 26.3636C7.94798 26.3636 2.63636 21.0524 2.63636 14.5C2.63636 7.94798 7.94798 2.63636 14.5 2.63636C21.052 2.63636 26.3636 7.94798 26.3636 14.5C26.3636 21.0524 21.052 26.3636 14.5 26.3636ZM19.3865 17.5226C19.9013 18.0373 19.9013 18.8721 19.3865 19.3868C19.1295 19.6439 18.7917 19.7727 18.4545 19.7727C18.1174 19.7731 17.78 19.6442 17.5226 19.3868L13.568 15.4323C13.3209 15.1851 13.1818 14.85 13.1818 14.5V6.59091C13.1818 5.86294 13.772 5.27273 14.5 5.27273C15.228 5.27273 15.8182 5.86294 15.8182 6.59091V13.9543L19.3865 17.5226Z" fill="#2443BE"/>
</svg>
