<svg width="18" height="18" viewBox="0 0 18 18" fill="none" xmlns="http://www.w3.org/2000/svg">
<g clip-path="url(#clip0)">
<path d="M16.26 16.4603L15.0668 17.6534C14.8537 17.8655 14.2297 17.9995 14.211 17.9995C10.434 18.0313 6.79768 16.5483 4.12535 13.8753C1.44536 11.1958 -0.0393913 7.54519 0.00181179 3.75721C0.00181179 3.755 0.138604 3.14859 0.351194 2.93765L1.54429 1.74347C1.98209 1.30623 2.82028 1.10847 3.4075 1.30401L3.65907 1.3886C4.24629 1.58414 4.85983 2.23231 5.02243 2.82884L5.62336 5.03373C5.78648 5.63139 5.56732 6.48167 5.13008 6.91891L4.33249 7.7165C5.11472 10.6157 7.38823 12.8887 10.2858 13.672L11.0834 12.8744C11.5207 12.4371 12.3732 12.2185 12.9708 12.3811L15.1757 12.9832C15.7712 13.1447 16.4194 13.7577 16.616 14.3454L16.6995 14.597C16.8949 15.1849 16.6972 16.0231 16.26 16.4603ZM10.1254 8.99974H11.2503C11.2503 7.75721 10.2429 6.74981 9.00042 6.74981V7.87477C9.62054 7.87477 10.1254 8.38011 10.1254 8.99974ZM14.6252 8.99974C14.6252 5.89288 12.1072 3.37489 9.00042 3.37489V4.49989C11.4821 4.49989 13.5003 6.51912 13.5003 8.99974H14.6252ZM9.00042 0V1.12496C13.3421 1.12496 16.8752 4.65805 16.8752 8.99974H18.0001C18.0001 4.02967 13.9705 0 9.00042 0Z" fill="#2443BE"/>
</g>
<defs>
<clipPath id="clip0">
<rect width="18" height="18" fill="white"/>
</clipPath>
</defs>
</svg>
